  0
SECTION
  2
HEADER
  9
$ACADVER
  1
AC1015
  9
$ACADMAINTVER
 70
     6
  9
$DWGCODEPAGE
  3
ANSI_1252
  9
$INSBASE
 10
0.0
 20
0.0
 30
0.0
  9
$EXTMIN
 10
-60.2094240838
 20
-91.4659685864
 30
0.0
  9
$EXTMAX
 10
439.7905759162
 20
138.5340314136
 30
0.0
  9
$LIMMIN
 10
0.0
 20
0.0
  9
$LIMMAX
 10
420.0
 20
297.0
  9
$ORTHOMODE
 70
     0
  9
$REGENMODE
 70
     1
  9
$FILLMODE
 70
     1
  9
$QTEXTMODE
 70
     0
  9
$MIRRTEXT
 70
     1
  9
$LTSCALE
 40
1.0
  9
$ATTMODE
 70
     1
  9
$TEXTSIZE
 40
3.5
  9
$TRACEWID
 40
1.0
  9
$TEXTSTYLE
  7
Standard
  9
$CLAYER
  8
0
  9
$CELTYPE
  6
ByLayer
  9
$CECOLOR
 62
   256
  9
$CELTSCALE
 40
1.0
  9
$DISPSILH
 70
     0
  9
$DIMSCALE
 40
1.0
  9
$DIMASZ
 40
3.302
  9
$DIMEXO
 40
0.0
  9
$DIMDLI
 40
3.75
  9
$DIMRND
 40
0.0
  9
$DIMDLE
 40
0.0
  9
$DIMEXE
 40
1.0
  9
$DIMTP
 40
0.0
  9
$DIMTM
 40
0.0
  9
$DIMTXT
 40
3.5
  9
$DIMCEN
 40
2.5
  9
$DIMTSZ
 40
0.0
  9
$DIMTOL
 70
     0
  9
$DIMLIM
 70
     0
  9
$DIMTIH
 70
     1
  9
$DIMTOH
 70
     1
  9
$DIMSE1
 70
     0
  9
$DIMSE2
 70
     0
  9
$DIMTAD
 70
     1
  9
$DIMZIN
 70
     1
  9
$DIMBLK
  1

  9
$DIMASO
 70
     1
  9
$DIMSHO
 70
     1
  9
$DIMPOST
  1

  9
$DIMAPOST
  1

  9
$DIMALT
 70
     0
  9
$DIMALTD
 70
     3
  9
$DIMALTF
 40
0.0393700787
  9
$DIMLFAC
 40
1.0
  9
$DIMTOFL
 70
     1
  9
$DIMTVP
 40
0.0
  9
$DIMTIX
 70
     0
  9
$DIMSOXD
 70
     0
  9
$DIMSAH
 70
     0
  9
$DIMBLK1
  1

  9
$DIMBLK2
  1

  9
$DIMSTYLE
  2
ISO-25
  9
$DIMCLRD
 70
     0
  9
$DIMCLRE
 70
     0
  9
$DIMCLRT
 70
     0
  9
$DIMTFAC
 40
1.0
  9
$DIMGAP
 40
1.524
  9
$DIMJUST
 70
     0
  9
$DIMSD1
 70
     0
  9
$DIMSD2
 70
     0
  9
$DIMTOLJ
 70
     0
  9
$DIMTZIN
 70
     1
  9
$DIMALTZ
 70
     0
  9
$DIMALTTZ
 70
     0
  9
$DIMUPT
 70
     0
  9
$DIMDEC
 70
     2
  9
$DIMTDEC
 70
     2
  9
$DIMALTU
 70
     2
  9
$DIMALTTD
 70
     3
  9
$DIMTXSTY
  7
Standard
  9
$DIMAUNIT
 70
     0
  9
$DIMADEC
 70
     2
  9
$DIMALTRND
 40
0.0
  9
$DIMAZIN
 70
     0
  9
$DIMDSEP
 70
    44
  9
$DIMATFIT
 70
     3
  9
$DIMFRAC
 70
     0
  9
$DIMLDRBLK
  1

  9
$DIMLUNIT
 70
     2
  9
$DIMLWD
 70
    -2
  9
$DIMLWE
 70
    -2
  9
$DIMTMOVE
 70
     0
  9
$LUNITS
 70
     2
  9
$LUPREC
 70
     2
  9
$SKETCHINC
 40
1.0
  9
$FILLETRAD
 40
0.0
  9
$AUNITS
 70
     0
  9
$AUPREC
 70
     2
  9
$MENU
  1
.
  9
$ELEVATION
 40
0.0
  9
$PELEVATION
 40
0.0
  9
$THICKNESS
 40
0.0
  9
$LIMCHECK
 70
     0
  9
$CHAMFERA
 40
0.0
  9
$CHAMFERB
 40
0.0
  9
$CHAMFERC
 40
0.0
  9
$CHAMFERD
 40
0.0
  9
$SKPOLY
 70
     0
  9
$TDCREATE
 40
2460278.008595081
  9
$TDUCREATE
 40
2460277.779428415
  9
$TDUPDATE
 40
2460278.009160347
  9
$TDUUPDATE
 40
2460277.779993681
  9
$TDINDWG
 40
0.0000000116
  9
$TDUSRTIMER
 40
0.0000000116
  9
$USRTIMER
 70
     1
  9
$ANGBASE
 50
0.0
  9
$ANGDIR
 70
     0
  9
$PDMODE
 70
     0
  9
$PDSIZE
 40
-1.0
  9
$PLINEWID
 40
0.0
  9
$SPLFRAME
 70
     0
  9
$SPLINETYPE
 70
     6
  9
$SPLINESEGS
 70
     8
  9
$HANDSEED
  5
158
  9
$SURFTAB1
 70
     6
  9
$SURFTAB2
 70
     6
  9
$SURFTYPE
 70
     6
  9
$SURFU
 70
     6
  9
$SURFV
 70
     6
  9
$UCSBASE
  2

  9
$UCSNAME
  2

  9
$UCSORG
 10
0.0
 20
0.0
 30
0.0
  9
$UCSXDIR
 10
1.0
 20
0.0
 30
0.0
  9
$UCSYDIR
 10
0.0
 20
1.0
 30
0.0
  9
$UCSORTHOREF
  2

  9
$UCSORTHOVIEW
 70
     0
  9
$UCSORGTOP
 10
0.0
 20
0.0
 30
0.0
  9
$UCSORGBOTTOM
 10
0.0
 20
0.0
 30
0.0
  9
$UCSORGLEFT
 10
0.0
 20
0.0
 30
0.0
  9
$UCSORGRIGHT
 10
0.0
 20
0.0
 30
0.0
  9
$UCSORGFRONT
 10
0.0
 20
0.0
 30
0.0
  9
$UCSORGBACK
 10
0.0
 20
0.0
 30
0.0
  9
$PUCSBASE
  2

  9
$PUCSNAME
  2

  9
$PUCSORG
 10
0.0
 20
0.0
 30
0.0
  9
$PUCSXDIR
 10
1.0
 20
0.0
 30
0.0
  9
$PUCSYDIR
 10
0.0
 20
1.0
 30
0.0
  9
$PUCSORTHOREF
  2

  9
$PUCSORTHOVIEW
 70
     0
  9
$PUCSORGTOP
 10
0.0
 20
0.0
 30
0.0
  9
$PUCSORGBOTTOM
 10
0.0
 20
0.0
 30
0.0
  9
$PUCSORGLEFT
 10
0.0
 20
0.0
 30
0.0
  9
$PUCSORGRIGHT
 10
0.0
 20
0.0
 30
0.0
  9
$PUCSORGFRONT
 10
0.0
 20
0.0
 30
0.0
  9
$PUCSORGBACK
 10
0.0
 20
0.0
 30
0.0
  9
$USERI1
 70
     0
  9
$USERI2
 70
     0
  9
$USERI3
 70
     0
  9
$USERI4
 70
     0
  9
$USERI5
 70
     0
  9
$USERR1
 40
0.0
  9
$USERR2
 40
0.0
  9
$USERR3
 40
0.0
  9
$USERR4
 40
0.0
  9
$USERR5
 40
0.0
  9
$WORLDVIEW
 70
     1
  9
$SHADEDGE
 70
     3
  9
$SHADEDIF
 70
    70
  9
$TILEMODE
 70
     1
  9
$MAXACTVP
 70
    64
  9
$PINSBASE
 10
0.0
 20
0.0
 30
0.0
  9
$PLIMCHECK
 70
     0
  9
$PEXTMIN
 10
1.0000000000E+20
 20
1.0000000000E+20
 30
1.0000000000E+20
  9
$PEXTMAX
 10
-1.0000000000E+20
 20
-1.0000000000E+20
 30
-1.0000000000E+20
  9
$PLIMMIN
 10
0.0
 20
0.0
  9
$PLIMMAX
 10
420.0
 20
297.0
  9
$UNITMODE
 70
     0
  9
$VISRETAIN
 70
     1
  9
$PLINEGEN
 70
     0
  9
$PSLTSCALE
 70
     1
  9
$TREEDEPTH
 70
  3020
  9
$CMLSTYLE
  2
Standard
  9
$CMLJUST
 70
     0
  9
$CMLSCALE
 40
20.0
  9
$PROXYGRAPHICS
 70
     1
  9
$MEASUREMENT
 70
     1
  9
$CELWEIGHT
370
    -1
  9
$ENDCAPS
280
     0
  9
$JOINSTYLE
280
     0
  9
$LWDISPLAY
290
     1
  9
$INSUNITS
 70
     4
  9
$HYPERLINKBASE
  1

  9
$STYLESHEET
  1

  9
$XEDIT
290
     1
  9
$CEPSNTYPE
380
     0
  9
$PSTYLEMODE
290
     1
  9
$FINGERPRINTGUID
  2
{9f632320-900d-40aa-9791-76f0272a1c16}
  9
$VERSIONGUID
  2
{FAEB1C32-E019-11D5-929B-00C0DF256EC4}
  9
$EXTNAMES
290
     1
  9
$PSVPSCALE
 40
0.0
  9
$OLESTARTUP
290
     0
  0
ENDSEC
  0
SECTION
  2
CLASSES
  0
CLASS
  1
ACDBDICTIONARYWDFLT
  2
AcDbDictionaryWithDefault
  3
ObjectDBX Classes
 90
        0
280
     0
281
     0
  0
CLASS
  1
VISUALSTYLE
  2
AcDbVisualStyle
  3
ObjectDBX Classes
 90
     4095
280
     0
281
     0
  0
CLASS
  1
MATERIAL
  2
AcDbMaterial
  3
ObjectDBX Classes
 90
     1153
280
     0
281
     0
  0
CLASS
  1
SCALE
  2
AcDbScale
  3
ObjectDBX Classes
 90
     1153
280
     0
281
     0
  0
CLASS
  1
TABLESTYLE
  2
AcDbTableStyle
  3
ObjectDBX Classes
 90
     4095
280
     0
281
     0
  0
CLASS
  1
MLEADERSTYLE
  2
AcDbMLeaderStyle
  3
ACDB_MLEADERSTYLE_CLASS
 90
     4095
280
     0
281
     0
  0
CLASS
  1
SUN
  2
AcDbSun
  3
SCENEOE
 90
     1153
280
     0
281
     0
  0
CLASS
  1
ACDBPLACEHOLDER
  2
AcDbPlaceHolder
  3
ObjectDBX Classes
 90
        0
280
     0
281
     0
  0
CLASS
  1
LAYOUT
  2
AcDbLayout
  3
ObjectDBX Classes
 90
        0
280
     0
281
     0
  0
ENDSEC
  0
SECTION
  2
TABLES
  0
TABLE
  2
VPORT
  5
8
330
0
100
AcDbSymbolTable
 70
     1
  0
VPORT
  5
29
330
8
100
AcDbSymbolTableRecord
100
AcDbViewportTableRecord
  2
*Active
 70
     0
 10
0.0
 20
0.0
 11
1.0
 21
1.0
 12
189.7905759162
 22
23.5340314136
 13
0.0
 23
0.0
 14
10.0
 24
10.0
 15
10.0
 25
10.0
 16
0.0
 26
0.0
 36
1.0
 17
0.0
 27
0.0
 37
0.0
 40
234.6
 41
2.1739130435
 42
50.0
 43
0.0
 44
0.0
 50
0.0
 51
0.0
 71
     0
 72
   100
 73
     1
 74
     3
 75
     0
 76
     0
 77
     0
 78
     0
281
     0
 65
     1
110
0.0
120
0.0
130
0.0
111
1.0
121
0.0
131
0.0
112
0.0
122
1.0
132
0.0
 79
     0
146
0.0
  0
ENDTAB
  0
TABLE
  2
LTYPE
  5
5
330
0
100
AcDbSymbolTable
 70
     6
  0
LTYPE
  5
14
330
5
100
AcDbSymbolTableRecord
100
AcDbLinetypeTableRecord
  2
ByBlock
 70
     0
  3

 72
    65
 73
     0
 40
0.0
  0
LTYPE
  5
15
330
5
100
AcDbSymbolTableRecord
100
AcDbLinetypeTableRecord
  2
ByLayer
 70
     0
  3

 72
    65
 73
     0
 40
0.0
  0
LTYPE
  5
16
330
5
100
AcDbSymbolTableRecord
100
AcDbLinetypeTableRecord
  2
Continuous
 70
     0
  3
Solid line
 72
    65
 73
     0
 40
0.0
  0
LTYPE
  5
5E
330
5
100
AcDbSymbolTableRecord
100
AcDbLinetypeTableRecord
  2
HIDDEN
 70
     0
  3
Hidden __ __ __ __ __ __ __ __ __ __ __ __ __ __
 72
    65
 73
     2
 40
1.905
 49
1.27
 74
     0
 49
-0.635
 74
     0
  0
LTYPE
  5
5F
330
5
100
AcDbSymbolTableRecord
100
AcDbLinetypeTableRecord
  2
PHANTOM
 70
     0
  3
Phantom ______  __  __  ______  __  __  ______
 72
    65
 73
     6
 40
12.7
 49
6.35
 74
     0
 49
-1.27
 74
     0
 49
1.27
 74
     0
 49
-1.27
 74
     0
 49
1.27
 74
     0
 49
-1.27
 74
     0
  0
LTYPE
  5
60
330
5
100
AcDbSymbolTableRecord
100
AcDbLinetypeTableRecord
  2
CENTER
 70
     0
  3
Center ____ _ ____ _ ____ _ ____ _ ____ _ ____
 72
    65
 73
     4
 40
10.16
 49
6.35
 74
     0
 49
-1.27
 74
     0
 49
1.27
 74
     0
 49
-1.27
 74
     0
  0
LTYPE
  5
61
330
5
100
AcDbSymbolTableRecord
100
AcDbLinetypeTableRecord
  2
CENTERX2
 70
     0
  3
Center (2x) ________  __  ________  __  _____
 72
    65
 73
     4
 40
20.32
 49
12.7
 74
     0
 49
-2.54
 74
     0
 49
2.54
 74
     0
 49
-2.54
 74
     0
  0
LTYPE
  5
62
330
5
100
AcDbSymbolTableRecord
100
AcDbLinetypeTableRecord
  2
DOT2
 70
     0
  3
Dot (.5x) ........................................
 72
    65
 73
     2
 40
0.635
 49
0.0
 74
     0
 49
-0.635
 74
     0
  0
ENDTAB
  0
TABLE
  2
LAYER
  5
2
330
0
100
AcDbSymbolTable
 70
     1
  0
LAYER
  5
10
330
2
100
AcDbSymbolTableRecord
100
AcDbLayerTableRecord
  2
0
 70
     0
 62
     7
  6
Continuous
370
    -3
390
F
  0
ENDTAB
  0
TABLE
  2
STYLE
  5
3
330
0
100
AcDbSymbolTable
 70
     1
  0
STYLE
  5
11
330
3
100
AcDbSymbolTableRecord
100
AcDbTextStyleTableRecord
  2
Standard
 70
     0
 40
0.0
 41
1.0
 50
0.0
 71
     0
 42
3.5
  3
txt
  4

  0
ENDTAB
  0
TABLE
  2
VIEW
  5
6
330
0
100
AcDbSymbolTable
 70
     0
  0
ENDTAB
  0
TABLE
  2
UCS
  5
7
330
0
100
AcDbSymbolTable
 70
     0
  0
ENDTAB
  0
TABLE
  2
APPID
  5
9
330
0
100
AcDbSymbolTable
 70
     1
  0
APPID
  5
12
330
9
100
AcDbSymbolTableRecord
100
AcDbRegAppTableRecord
  2
ACAD
 70
     0
  0
ENDTAB
  0
TABLE
  2
DIMSTYLE
  5
A
330
0
100
AcDbSymbolTable
 70
     1
100
AcDbDimStyleTable
  0
DIMSTYLE
105
27
330
A
100
AcDbSymbolTableRecord
100
AcDbDimStyleTableRecord
  2
ISO-25
 70
     0
 41
2.5
 42
0.625
 43
3.75
 44
1.25
 73
     0
 74
     0
 77
     1
 78
     8
140
2.5
141
2.5
143
0.0393700787
147
0.625
171
     3
172
     1
178
     0
271
     2
272
     2
274
     3
278
    44
283
     0
284
     8
340
11
  0
ENDTAB
  0
TABLE
  2
BLOCK_RECORD
  5
1
330
0
100
AcDbSymbolTable
 70
     1
  0
BLOCK_RECORD
  5
1F
330
1
100
AcDbSymbolTableRecord
100
AcDbBlockTableRecord
  2
*Model_Space
340
22
  0
BLOCK_RECORD
  5
1B
330
1
100
AcDbSymbolTableRecord
100
AcDbBlockTableRecord
  2
*Paper_Space
340
1E
  0
BLOCK_RECORD
  5
23
330
1
100
AcDbSymbolTableRecord
100
AcDbBlockTableRecord
  2
*Paper_Space0
340
26
  0
ENDTAB
  0
ENDSEC
  0
SECTION
  2
BLOCKS
  0
BLOCK
  5
20
330
1F
100
AcDbEntity
  8
0
100
AcDbBlockBegin
  2
*Model_Space
 70
     0
 10
0.0
 20
0.0
 30
0.0
  3
*Model_Space
  1

  0
ENDBLK
  5
21
330
1F
100
AcDbEntity
  8
0
100
AcDbBlockEnd
  0
BLOCK
  5
1C
330
1B
100
AcDbEntity
 67
     1
  8
0
100
AcDbBlockBegin
  2
*Paper_Space
 70
     0
 10
0.0
 20
0.0
 30
0.0
  3
*Paper_Space
  1

  0
ENDBLK
  5
1D
330
1B
100
AcDbEntity
 67
     1
  8
0
100
AcDbBlockEnd
  0
BLOCK
  5
24
330
23
100
AcDbEntity
  8
0
100
AcDbBlockBegin
  2
*Paper_Space0
 70
     0
 10
0.0
 20
0.0
 30
0.0
  3
*Paper_Space0
  1

  0
ENDBLK
  5
25
330
23
100
AcDbEntity
  8
0
100
AcDbBlockEnd
  0
ENDSEC
  0
SECTION
  2
ENTITIES
  0
SPLINE
  5
64
330
1F
100
AcDbEntity
  8
0
  6
Continuous
 62
     7
370
    25
100
AcDbSpline
210
0.0
220
0.0
230
1.0
 70
     8
 71
     3
 72
    22
 73
    18
 74
     0
 42
0.00000001
 43
0.00000001
 40
0.6530375042433746
 40
0.6530375042433746
 40
0.6530375042433746
 40
0.6530375042433746
 40
0.6562499952633042
 40
0.6718740187401433
 40
0.6874999952632445
 40
0.703124018739826
 40
0.7187499952631864
 40
0.7343740187397895
 40
0.7499999952631295
 40
0.7656240187398822
 40
0.7812499952630726
 40
0.796874018739763
 40
0.8124999952630138
 40
0.8281240187397184
 40
0.8437499952629575
 40
0.8593740187399146
 40
0.8612339414121957
 40
0.8612339414121957
 40
0.8612339414121957
 40
0.8612339414121957
 10
56.38137524357842
 20
-12.21676343148344
 30
0.0
 10
56.55460855531349
 20
-11.96844205154348
 30
0.0
 10
57.55573681443002
 20
-10.50219134256023
 30
0.0
 10
59.22856583941652
 20
-7.71349965778264
 30
0.0
 10
61.11829468291424
 20
-3.714379209135653
 30
0.0
 10
62.60994655594534
 20
0.4498279246864211
 30
0.0
 10
63.68317509348748
 20
4.740774203883912
 30
0.0
 10
64.33376878337627
 20
9.115974109555147
 30
0.0
 10
64.54925344413596
 20
13.53384756019392
 30
0.0
 10
64.33378700021927
 20
17.95190375895799
 30
0.0
 10
63.68324682953453
 20
22.32692798187945
 30
0.0
 10
62.61000050641164
 20
26.61805705168103
 30
0.0
 10
61.11843539822146
 20
30.7821023195371
 30
0.0
 10
59.2286534502319
 20
34.7813985767886
 30
0.0
 10
56.95338341510723
 20
38.57444296500127
 30
0.0
 10
55.09312531507749
 20
41.08458033411758
 30
0.0
 10
54.04027528604647
 20
42.35219881959998
 30
0.0
 10
53.9274855046718
 20
42.48638398179818
 30
0.0
  0
SPLINE
  5
68
330
1F
100
AcDbEntity
  8
0
  6
Continuous
 62
     7
370
    25
100
AcDbSpline
210
0.0
220
0.0
230
1.0
 70
     8
 71
     3
 72
    22
 73
    18
 74
     0
 42
0.00000001
 43
0.00000001
 40
0.6538141181354162
 40
0.6538141181354162
 40
0.6538141181354162
 40
0.6538141181354162
 40
0.6562499948309374
 40
0.6718739295329816
 40
0.6874999948310248
 40
0.7031239295332519
 40
0.7187499948311165
 40
0.7343739295333895
 40
0.7499999948312026
 40
0.7656239295333488
 40
0.7812499948312925
 40
0.7968739295333988
 40
0.8124999948313796
 40
0.8281239295333994
 40
0.8437499948314688
 40
0.8593739295336786
 40
0.8604535180569857
 40
0.8604535180569857
 40
0.8604535180569857
 40
0.8604535180569857
 10
50.33504984403
 20
-7.774632385830087
 30
0.0
 10
50.44374850424435
 20
-7.617193836952168
 30
0.0
 10
51.24076227233073
 20
-6.443790309249284
 30
0.0
 10
52.6033730438436
 20
-4.172250782430234
 30
0.0
 10
54.17814491712114
 20
-0.8396569480744915
 30
0.0
 10
55.42119147097061
 20
2.630521762842328
 30
0.0
 10
56.31554790204582
 20
6.206303413334887
 30
0.0
 10
56.85771133930012
 20
9.852309987177861
 30
0.0
 10
57.03728258033661
 20
13.53386427431987
 30
0.0
 10
56.85772789949975
 20
17.21558469528844
 30
0.0
 10
56.31561311891697
 20
20.86143155994569
 30
0.0
 10
55.42124050819011
 20
24.4373793750078
 30
0.0
 10
54.17827287232907
 20
27.90741096730975
 30
0.0
 10
52.60345256977705
 20
31.24016450724306
 30
0.0
 10
50.707398627721
 20
34.40102945901284
 30
0.0
 10
49.19371959896515
 20
36.44351189957177
 30
0.0
 10
48.35801412976213
 20
37.45476593358269
 30
0.0
 10
48.30377793215113
 20
37.51994054146318
 30
0.0
  0
SPLINE
  5
6E
330
1F
100
AcDbEntity
  8
0
  6
Continuous
 62
     7
370
    25
100
AcDbSpline
210
0.0
220
0.0
230
1.0
 70
     8
 71
     3
 72
    22
 73
    18
 74
     0
 42
0.00000001
 43
0.00000001
 40
0.1530375042435231
 40
0.1530375042435231
 40
0.1530375042435231
 40
0.1530375042435231
 40
0.156249995264225
 40
0.1718740187409948
 40
0.187499995264166
 40
0.2031240187410205
 40
0.2187499952641105
 40
0.2343740187407306
 40
0.2499999952640486
 40
0.2656240187405752
 40
0.2812499952639944
 40
0.2968740187407577
 40
0.3124999952639357
 40
0.3281240187406181
 40
0.3437499952638784
 40
0.3593740187405867
 40
0.3612339414103281
 40
0.3612339414103281
 40
0.3612339414103281
 40
0.3612339414103281
 10
-17.4265187230172
 20
39.28482625882103
 30
0.0
 10
-17.59975203479769
 20
39.03650487884662
 30
0.0
 10
-18.60088029397084
 20
37.57025416995354
 30
0.0
 10
-20.27370931898387
 20
34.7815624849751
 30
0.0
 10
-22.1634381624915
 20
30.78244203635313
 30
0.0
 10
-23.65509003553456
 20
26.61823490251476
 30
0.0
 10
-24.72831857306568
 20
22.32728862331519
 30
0.0
 10
-25.37891226292416
 20
17.95208871766562
 30
0.0
 10
-25.59439692370874
 20
13.53421526705111
 30
0.0
 10
-25.37893047980388
 20
9.11615906828746
 30
0.0
 10
-24.72839030910659
 20
4.741134845359596
 30
0.0
 10
-23.65514398598176
 20
0.450005775540236
 30
0.0
 10
-22.16357887779261
 20
-3.714039492327816
 30
0.0
 10
-20.27379692979314
 20
-7.713335749517436
 30
0.0
 10
-17.99852689471443
 20
-11.50638013791012
 30
0.0
 10
-16.13826879476871
 20
-14.01651750629926
 30
0.0
 10
-15.08541876597755
 20
-15.28413599203794
 30
0.0
 10
-14.97262898476609
 20
-15.41832115410618
 30
0.0
  0
SPLINE
  5
72
330
1F
100
AcDbEntity
  8
0
  6
Continuous
 62
     7
370
    25
100
AcDbSpline
210
0.0
220
0.0
230
1.0
 70
     8
 71
     3
 72
    22
 73
    18
 74
     0
 42
0.00000001
 43
0.00000001
 40
0.1538141222530031
 40
0.1538141222530031
 40
0.1538141222530031
 40
0.1538141222530031
 40
0.156249994316798
 40
0.1718738224890735
 40
0.1874999943166256
 40
0.2031238224886078
 40
0.2187499943164588
 40
0.2343738224886985
 40
0.2499999943162918
 40
0.2656238224886307
 40
0.2812499943161234
 40
0.2968738224884721
 40
0.3124999943159555
 40
0.328123822488479
 40
0.3437499943157887
 40
0.3593738224881326
 40
0.3604535175773481
 40
0.3604535175773481
 40
0.3604535175773481
 40
0.3604535175773481
 10
-11.38019379180238
 20
34.84269419700113
 30
0.0
 10
-11.48889229963332
 20
34.68525598958887
 30
0.0
 10
-12.28590153111833
 20
33.51185997301277
 30
0.0
 10
-13.64851241991644
 20
31.24032096453836
 30
0.0
 10
-15.22328203318785
 20
27.9077352426083
 30
0.0
 10
-16.46633248859497
 20
24.43754914140886
 30
0.0
 10
-17.3606881236475
 20
20.86177580863133
 30
0.0
 10
-17.90285398918135
 20
17.21576124667764
 30
0.0
 10
-18.08242606053492
 20
13.53421526698011
 30
0.0
 10
-17.9028722060135
 20
9.852486539208726
 30
0.0
 10
-17.36075985967778
 20
6.206647659966837
 30
0.0
 10
-16.46638643904966
 20
2.630691536635785
 30
0.0
 10
-15.22342274846031
 20
-0.8393326986425309
 30
0.0
 10
-13.64860003071056
 20
-4.172094229140732
 30
0.0
 10
-11.75255139344622
 20
-7.332952735080424
 30
0.0
 10
-10.23886810630464
 20
-9.375442346075873
 30
0.0
 10
-9.403162969643997
 20
-10.38669666278171
 30
0.0
 10
-9.348921418008555
 20
-10.45187770397572
 30
0.0
  0
SPLINE
  5
73
330
1F
100
AcDbEntity
  8
0
  6
Continuous
 62
     7
370
    25
100
AcDbSpline
210
0.0
220
0.0
230
1.0
 70
     8
 71
     3
 72
    14
 73
    10
 74
     0
 42
0.00000001
 43
0.00000001
 40
0.411983149117517
 40
0.411983149117517
 40
0.411983149117517
 40
0.411983149117517
 40
0.4375000000000001
 40
0.4687500000000002
 40
0.5000000000000002
 40
0.5312500000000002
 40
0.5625000000000002
 40
0.5937500000000002
 40
0.6022877590710631
 40
0.6022877590710631
 40
0.6022877590710631
 40
0.6022877590710631
 10
2.406342332785194
 20
-14.12143937861093
 30
0.0
 10
3.884367246818149
 20
-15.03366690478851
 30
0.0
 10
7.335287178301786
 20
-16.79943611862771
 30
0.0
 10
13.09612111889658
 20
-18.54696598931975
 30
0.0
 10
19.47742826021448
 20
-19.17546988492126
 30
0.0
 10
25.85873540153244
 20
-18.54696598931976
 30
0.0
 10
31.9948124880878
 20
-16.6856073547542
 30
0.0
 10
36.27984120555139
 20
-14.39521178740096
 30
0.0
 10
38.49117679544281
 20
-12.8299982684679
 30
0.0
 10
38.95635554842744
 20
-12.48165975309475
 30
0.0
  0
SPLINE
  5
76
330
1F
100
AcDbEntity
  8
0
  6
Continuous
 62
     7
370
    25
100
AcDbSpline
210
0.0
220
0.0
230
1.0
 70
     8
 71
     3
 72
    14
 73
    10
 74
     0
 42
0.00000001
 43
0.00000001
 40
0.4109915865280153
 40
0.4109915865280153
 40
0.4109915865280153
 40
0.4109915865280153
 40
0.4374999999999999
 40
0.4687499999999999
 40
0.5
 40
0.53125
 40
0.5624999999999999
 40
0.5937499999999999
 40
0.603275679136327
 40
0.603275679136327
 40
0.603275679136327
 40
0.603275679136327
 10
4.887148776945183
 20
-9.776313506346584
 30
0.0
 10
6.181358762660544
 20
-10.5862753397833
 30
0.0
 10
9.148394135036153
 20
-12.11609059923526
 30
0.0
 10
14.07786067909936
 20
-13.61142792733017
 30
0.0
 10
19.47742826021448
 20
-14.14323891591605
 30
0.0
 10
24.87699584132968
 20
-13.61142792733018
 30
0.0
 10
30.069061068415
 20
-12.03643215962084
 30
0.0
 10
33.74527840456071
 20
-10.07145305527562
 30
0.0
 10
35.6588056667558
 20
-8.708076787277266
 30
0.0
 10
36.09591638283752
 20
-8.376505041283906
 30
0.0
  0
SPLINE
  5
7B
330
1F
100
AcDbEntity
  8
0
  6
Continuous
 62
     7
370
    25
100
AcDbSpline
210
0.0
220
0.0
230
1.0
 70
     8
 71
     3
 72
    13
 73
     9
 74
     0
 42
0.00000001
 43
0.00000001
 40
0.4253650937137192
 40
0.4253650937137192
 40
0.4253650937137192
 40
0.4253650937137192
 40
0.4374999999999999
 40
0.4687499999999999
 40
0.5
 40
0.53125
 40
0.5624999999999999
 40
0.588906035593096
 40
0.588906035593096
 40
0.588906035593096
 40
0.588906035593096
 10
11.56841429615973
 20
-2.076712887735227
 30
0.0
 10
11.96516134147885
 20
-2.277737338418705
 30
0.0
 10
13.41097363068994
 20
-2.942438949368024
 30
0.0
 10
16.04133979950487
 20
-3.740351803350982
 30
0.0
 10
19.47742826021448
 20
-4.078776977905638
 30
0.0
 10
22.91351672092418
 20
-3.740351803350986
 30
0.0
 10
26.04684186144921
 20
-2.789868013309202
 30
0.0
 10
27.93186949828907
 20
-1.818704744529037
 30
0.0
 10
28.75260733078494
 20
-1.305793287296804
 30
0.0
  0
SPLINE
  5
7E
330
1F
100
AcDbEntity
  8
0
  6
Continuous
 62
     7
370
    25
100
AcDbSpline
210
0.0
220
0.0
230
1.0
 70
     8
 71
     3
 72
    13
 73
     9
 74
     0
 42
0.00000001
 43
0.00000001
 40
0.427640778087908
 40
0.427640778087908
 40
0.427640778087908
 40
0.427640778087908
 40
0.4375000000000002
 40
0.4687500000000001
 40
0.5000000000000002
 40
0.5312500000000001
 40
0.5625000000000001
 40
0.5866254301555804
 40
0.5866254301555804
 40
0.5866254301555804
 40
0.5866254301555804
 10
9.5967065109199
 20
-6.68028000904572
 30
0.0
 10
10.01410498839622
 20
-6.88432996258604
 30
0.0
 10
11.78081798520414
 20
-7.681282142289358
 30
0.0
 10
15.05960023930211
 20
-8.675889865340576
 30
0.0
 10
19.47742826021448
 20
-9.111007946910846
 30
0.0
 10
23.89525628112693
 20
-8.675889865340569
 30
0.0
 10
27.82047708425794
 20
-7.485187152284242
 30
0.0
 10
30.15539521519253
 20
-6.30326781127798
 30
0.0
 10
31.12803112616136
 20
-5.714643693803971
 30
0.0
  0
SPLINE
  5
84
330
1F
100
AcDbEntity
  8
0
  6
Continuous
 62
     7
370
    25
100
AcDbSpline
210
0.0
220
0.0
230
1.0
 70
     8
 71
     3
 72
    10
 73
     6
 74
     0
 42
0.00000001
 43
0.00000001
 40
0.4804050880257857
 40
0.4804050880257857
 40
0.4804050880257857
 40
0.4804050880257857
 40
0.5
 40
0.53125
 40
0.5338683228182016
 40
0.5338683228182016
 40
0.5338683228182016
 40
0.5338683228182016
 10
17.942335750187
 20
1.128692945447644
 30
0.0
 10
18.45144957947975
 20
1.065712492399097
 30
0.0
 10
19.7825552200161
 20
0.983506373572536
 30
0.0
 10
21.18220782300606
 20
1.121360122653525
 30
0.0
 10
22.05040663312893
 20
1.301515902946599
 30
0.0
 10
22.11740688219938
 20
1.315995647710386
 30
0.0
  0
SPLINE
  5
86
330
1F
100
AcDbEntity
  8
0
  6
Continuous
 62
     7
370
    25
100
AcDbSpline
210
0.0
220
0.0
230
1.0
 70
     8
 71
     3
 72
    10
 73
     6
 74
     0
 42
0.00000001
 43
0.00000001
 40
0.7304050880257837
 40
0.7304050880257837
 40
0.7304050880257837
 40
0.7304050880257837
 40
0.7499999999999999
 40
0.78125
 40
0.7838683228182005
 40
0.7838683228182005
 40
0.7838683228182005
 40
0.7838683228182005
 10
31.88276672837942
 20
11.99893890358494
 30
0.0
 10
31.94574718142801
 20
12.50805273287772
 30
0.0
 10
32.02795330025457
 20
13.83915837341412
 30
0.0
 10
31.89009955117356
 20
15.23881097640408
 30
0.0
 10
31.70994377088052
 20
16.10700978652694
 30
0.0
 10
31.69546402611673
 20
16.17401003559738
 30
0.0
  0
SPLINE
  5
8B
330
1F
100
AcDbEntity
  8
0
  6
Continuous
 62
     7
370
    25
100
AcDbSpline
210
0.0
220
0.0
230
1.0
 70
     8
 71
     3
 72
    13
 73
     9
 74
     0
 42
0.00000001
 43
0.00000001
 40
0.675365093713719
 40
0.675365093713719
 40
0.675365093713719
 40
0.675365093713719
 40
0.6874999999999999
 40
0.71875
 40
0.7499999999999999
 40
0.78125
 40
0.8125
 40
0.8389060355930958
 40
0.8389060355930958
 40
0.8389060355930958
 40
0.8389060355930958
 10
35.08817256156232
 20
5.625017449557776
 30
0.0
 10
35.28919701224581
 20
6.021764494876909
 30
0.0
 10
35.95389862319512
 20
7.467576784088006
 30
0.0
 10
36.75181147717807
 20
10.0979429529029
 30
0.0
 10
37.09023665173272
 20
13.5340314136126
 30
0.0
 10
36.75181147717807
 20
16.97011987432224
 30
0.0
 10
35.80132768713631
 20
20.10344501484728
 30
0.0
 10
34.83016441835613
 20
21.98847265168714
 30
0.0
 10
34.31725296112392
 20
22.80921048418301
 30
0.0
  0
SPLINE
  5
8E
330
1F
100
AcDbEntity
  8
0
  6
Continuous
 62
     7
370
    25
100
AcDbSpline
210
0.0
220
0.0
230
1.0
 70
     8
 71
     3
 72
    13
 73
     9
 74
     0
 42
0.00000001
 43
0.00000001
 40
0.6776407780879079
 40
0.6776407780879079
 40
0.6776407780879079
 40
0.6776407780879079
 40
0.6875000000000001
 40
0.7187500000000002
 40
0.7500000000000003
 40
0.7812500000000003
 40
0.8125000000000004
 40
0.8366254301555808
 40
0.8366254301555808
 40
0.8366254301555808
 40
0.8366254301555808
 10
39.69173968287279
 20
3.653309664317966
 30
0.0
 10
39.89578963641311
 20
4.07070814179427
 30
0.0
 10
40.69274181611643
 20
5.837421138602212
 30
0.0
 10
41.68734953916767
 20
9.11620339270016
 30
0.0
 10
42.12246762073796
 20
13.53403141361257
 30
0.0
 10
41.68734953916767
 20
17.95185943452501
 30
0.0
 10
40.49664682611132
 20
21.87708023765601
 30
0.0
 10
39.31472748510506
 20
24.21199836859061
 30
0.0
 10
38.72610336763105
 20
25.18463427955946
 30
0.0
  0
SPLINE
  5
91
330
1F
100
AcDbEntity
  8
0
  6
Continuous
 62
     7
370
    25
100
AcDbSpline
210
0.0
220
0.0
230
1.0
 70
     8
 71
     3
 72
    14
 73
    10
 74
     0
 42
0.00000001
 43
0.00000001
 40
0.6609915865280156
 40
0.6609915865280156
 40
0.6609915865280156
 40
0.6609915865280156
 40
0.6874999999999999
 40
0.7187499999999999
 40
0.7499999999999999
 40
0.78125
 40
0.8125
 40
0.8437499999999999
 40
0.853275679136327
 40
0.853275679136327
 40
0.853275679136327
 40
0.853275679136327
 10
42.78777318017368
 20
-1.056248069656693
 30
0.0
 10
43.59773501361042
 20
0.2379619160586474
 30
0.0
 10
45.12755027306237
 20
3.204997288434233
 30
0.0
 10
46.62288760115727
 20
8.134463832497392
 30
0.0
 10
47.15469858974314
 20
13.53403141361259
 30
0.0
 10
46.6228876011573
 20
18.93359899472775
 30
0.0
 10
45.04789183344793
 20
24.12566422181307
 30
0.0
 10
43.08291272910269
 20
27.80188155795876
 30
0.0
 10
41.71953646110435
 20
29.71540882015388
 30
0.0
 10
41.387964715111
 20
30.15251953623559
 30
0.0
  0
SPLINE
  5
94
330
1F
100
AcDbEntity
  8
0
  6
Continuous
 62
     7
370
    25
100
AcDbSpline
210
0.0
220
0.0
230
1.0
 70
     8
 71
     3
 72
    14
 73
    10
 74
     0
 42
0.00000001
 43
0.00000001
 40
0.661983149117517
 40
0.661983149117517
 40
0.661983149117517
 40
0.661983149117517
 40
0.6875000000000001
 40
0.7187500000000001
 40
0.7500000000000001
 40
0.7812500000000001
 40
0.8125000000000001
 40
0.84375
 40
0.8522877590710631
 40
0.8522877590710631
 40
0.8522877590710631
 40
0.8522877590710631
 10
47.13289905243801
 20
-3.537054513816768
 30
0.0
 10
48.04512657861559
 20
-2.05902959978381
 30
0.0
 10
49.81089579245479
 20
1.39189033169981
 30
0.0
 10
51.55842566314683
 20
7.15272427229463
 30
0.0
 10
52.18692955874837
 20
13.53403141361258
 30
0.0
 10
51.55842566314683
 20
19.91533855493052
 30
0.0
 10
49.69706702858129
 20
26.05141564148587
 30
0.0
 10
47.40667146122804
 20
30.33644435894947
 30
0.0
 10
45.84145794229497
 20
32.54777994884089
 30
0.0
 10
45.4931194269218
 20
33.01295870182555
 30
0.0
  0
SPLINE
  5
9A
330
1F
100
AcDbEntity
  8
0
  6
Continuous
 62
     7
370
    25
100
AcDbSpline
210
0.0
220
0.0
230
1.0
 70
     8
 71
     3
 72
    24
 73
    20
 74
     0
 42
0.00000001
 43
0.00000001
 40
0.9038141228062724
 40
0.9038141228062724
 40
0.9038141228062724
 40
0.9038141228062724
 40
0.90624999483165
 40
0.9218739295341567
 40
0.9374999948317344
 40
0.9531239295340813
 40
0.9687499948318257
 40
0.9843744648029874
 40
0.9999999999999999
 40
0.9999999999999999
 40
0.9999999999999999
 40
1.015624411201616
 40
1.031249994317469
 40
1.046873822489941
 40
1.062499994317302
 40
1.078123822489881
 40
1.093749994317133
 40
1.109373822489317
 40
1.110453517547093
 40
1.110453517547093
 40
1.110453517547093
 40
1.110453517547093
 10
40.78609103541469
 20
44.39165346759487
 30
0.0
 10
40.62865283095852
 20
44.5003519739601
 30
0.0
 10
39.45524989720533
 20
45.29736591223332
 30
0.0
 10
37.18371037482476
 20
46.6599761776236
 30
0.0
 10
33.85111659674217
 20
48.2347477271704
 30
0.0
 10
30.38093809281164
 20
49.47779601730711
 30
0.0
 10
26.80511472513905
 20
50.37215603938238
 30
0.0
 10
23.159109878751
 20
50.91433825337061
 30
0.0
 10
20.70468272062082
 20
51.0340383265376
 30
0.0
 10
19.47742826021451
 20
51.0340314136126
 30
0.0
 10
18.25026208019967
 20
51.03402450118487
 30
0.0
 10
15.79583957787406
 20
50.91430543023831
 30
0.0
 10
12.14999882930318
 20
50.37221413839212
 30
0.0
 10
8.57408858884906
 20
49.47784454860926
 30
0.0
 10
5.10406409285577
 20
48.23488284138166
 30
0.0
 10
1.771302632223859
 20
46.66005959221937
 30
0.0
 10
-1.389555892427591
 20
44.76401109736884
 30
0.0
 10
-3.432045497964192
 20
43.25032778539536
 30
0.0
 10
-4.443299812264073
 20
42.41462264603585
 30
0.0
 10
-4.508480851538294
 20
42.36038109574476
 30
0.0
  0
SPLINE
  5
9E
330
1F
100
AcDbEntity
  8
0
  6
Continuous
 62
     7
370
    25
100
AcDbSpline
210
0.0
220
0.0
230
1.0
 70
     8
 71
     3
 72
    22
 73
    18
 74
     0
 42
0.00000001
 43
0.00000001
 40
0.9030375042132968
 40
0.9030375042132968
 40
0.9030375042132968
 40
0.9030375042132968
 40
0.9062499952628428
 40
0.9218740187396611
 40
0.9374999952627842
 40
0.9531240187394383
 40
0.9687499952627258
 40
0.9843745093997395
 40
1.0
 40
1.015624509340677
 40
1.031249995264456
 40
1.046874018741527
 40
1.062499995264399
 40
1.078124018741383
 40
1.09374999526434
 40
1.10937401874076
 40
1.11123394142629
 40
1.11123394142629
 40
1.11123394142629
 40
1.11123394142629
 10
45.22822311122299
 20
50.43797838500061
 30
0.0
 10
44.97990172920552
 20
50.61121169972965
 30
0.0
 10
43.51365101979165
 20
51.61233997395436
 30
0.0
 10
40.72495934644416
 20
53.28516910437445
 30
0.0
 10
36.72583882760605
 20
55.1748974199429
 30
0.0
 10
32.56163195569137
 20
56.66655126312092
 30
0.0
 10
28.27063978289202
 20
57.73978368168487
 30
0.0
 10
23.89544176299544
 20
58.39039824192893
 30
0.0
 10
19.47751974768247
 20
58.60585659629634
 30
0.0
 10
15.05951211854206
 20
58.39036385600419
 30
0.0
 10
10.68448601078803
 20
57.73984454699786
 30
0.0
 10
6.393402828611283
 20
56.66660210646089
 30
0.0
 10
2.22935729889448
 20
55.17503896777833
 30
0.0
 10
-1.769938888110612
 20
53.28525649207397
 30
0.0
 10
-5.562983295284041
 20
51.00998659842445
 30
0.0
 10
-8.073120661258482
 20
49.14972847085145
 30
0.0
 10
-9.340739147524314
 20
48.09687843695846
 30
0.0
 10
-9.474924310675343
 20
47.98408865443591
 30
0.0
  0
SPLINE
  5
A1
330
1F
100
AcDbEntity
  8
0
  6
Continuous
 62
     7
370
    25
100
AcDbSpline
210
0.0
220
0.0
230
1.0
 70
     8
 71
     3
 72
    16
 73
    12
 74
     0
 42
0.00000001
 43
0.00000001
 40
0.9109915865280153
 40
0.9109915865280153
 40
0.9109915865280153
 40
0.9109915865280153
 40
0.9374999999999999
 40
0.9687499999999999
 40
1.0
 40
1.0
 40
1.0
 40
1.03125
 40
1.0625
 40
1.09375
 40
1.103275679136327
 40
1.103275679136327
 40
1.103275679136327
 40
1.103275679136327
 10
34.06770774348383
 20
36.84437633357174
 30
0.0
 10
32.7734977577685
 20
37.65433816700848
 30
0.0
 10
29.80646238539289
 20
39.18415342646043
 30
0.0
 10
24.87699584132968
 20
40.67949075455535
 30
0.0
 10
21.27728412058624
 20
41.0340314136126
 30
0.0
 10
19.47742826021451
 20
41.0340314136126
 30
0.0
 10
17.6775723998428
 20
41.0340314136126
 30
0.0
 10
14.07786067909933
 20
40.67949075455535
 30
0.0
 10
8.885795452014012
 20
39.10449498684602
 30
0.0
 10
5.209578115868335
 20
37.13951588250078
 30
0.0
 10
3.296050853673238
 20
35.77613961450243
 30
0.0
 10
2.858940137591526
 20
35.44456786850908
 30
0.0
  0
SPLINE
  5
A4
330
1F
100
AcDbEntity
  8
0
  6
Continuous
 62
     7
370
    25
100
AcDbSpline
210
0.0
220
0.0
230
1.0
 70
     8
 71
     3
 72
    16
 73
    12
 74
     0
 42
0.00000001
 43
0.00000001
 40
0.9119831491175167
 40
0.9119831491175167
 40
0.9119831491175167
 40
0.9119831491175167
 40
0.9374999999999998
 40
0.9687499999999998
 40
1.0
 40
1.0
 40
1.0
 40
1.03125
 40
1.0625
 40
1.09375
 40
1.102287759071063
 40
1.102287759071063
 40
1.102287759071063
 40
1.102287759071063
 10
36.54851418764387
 20
41.18950220583608
 30
0.0
 10
35.0704892736109
 20
42.10172973201367
 30
0.0
 10
31.61956934212728
 20
43.86749894585289
 30
0.0
 10
25.85873540153244
 20
45.61502881654492
 30
0.0
 10
21.60453064065385
 20
46.0340314136126
 30
0.0
 10
19.47742826021451
 20
46.0340314136126
 30
0.0
 10
17.3503258797752
 20
46.0340314136126
 30
0.0
 10
13.09612111889658
 20
45.61502881654491
 30
0.0
 10
6.960044032341211
 20
43.75367018197938
 30
0.0
 10
2.675015314877599
 20
41.46327461462612
 30
0.0
 10
0.4636797249861768
 20
39.89806109569302
 30
0.0
 10
-0.0014990279984806
 20
39.54972258031986
 30
0.0
  0
SPLINE
  5
A7
330
1F
100
AcDbEntity
  8
0
  6
Continuous
 62
     7
370
    25
100
AcDbSpline
210
0.0
220
0.0
230
1.0
 70
     8
 71
     3
 72
    15
 73
    11
 74
     0
 42
0.00000001
 43
0.00000001
 40
0.9253650937137189
 40
0.9253650937137189
 40
0.9253650937137189
 40
0.9253650937137189
 40
0.9374999999999999
 40
0.9687499999999999
 40
1.0
 40
1.0
 40
1.0
 40
1.03125
 40
1.0625
 40
1.088906035593096
 40
1.088906035593096
 40
1.088906035593096
 40
1.088906035593096
 10
27.38644222426934
 20
29.14477571496039
 30
0.0
 10
26.9896951789502
 20
29.34580016564387
 30
0.0
 10
25.54388288973911
 20
30.01050177659319
 30
0.0
 10
22.91351672092418
 20
30.80841463057615
 30
0.0
 10
20.62279108045107
 20
31.03403141361258
 30
0.0
 10
19.47742826021451
 20
31.03403141361258
 30
0.0
 10
18.33206543997795
 20
31.03403141361258
 30
0.0
 10
16.04133979950484
 20
30.80841463057617
 30
0.0
 10
12.90801465897981
 20
29.85793084053437
 30
0.0
 10
11.02298702213994
 20
28.8867675717542
 30
0.0
 10
10.20224918964405
 20
28.37385611452196
 30
0.0
  0
SPLINE
  5
AA
330
1F
100
AcDbEntity
  8
0
  6
Continuous
 62
     7
370
    25
100
AcDbSpline
210
0.0
220
0.0
230
1.0
 70
     8
 71
     3
 72
    15
 73
    11
 74
     0
 42
0.00000001
 43
0.00000001
 40
0.9276407780879075
 40
0.9276407780879075
 40
0.9276407780879075
 40
0.9276407780879075
 40
0.9375
 40
0.96875
 40
1.0
 40
1.0
 40
1.0
 40
1.03125
 40
1.0625
 40
1.08662543015558
 40
1.08662543015558
 40
1.08662543015558
 40
1.08662543015558
 10
29.35815000950917
 20
33.74834283627087
 30
0.0
 10
28.94075153203285
 20
33.9523927898112
 30
0.0
 10
27.1740385352249
 20
34.74934496951453
 30
0.0
 10
23.89525628112696
 20
35.74395269256575
 30
0.0
 10
20.95003760051867
 20
36.03403141361259
 30
0.0
 10
19.47742826021451
 20
36.03403141361258
 30
0.0
 10
18.00481891991038
 20
36.03403141361258
 30
0.0
 10
15.05960023930211
 20
35.74395269256574
 30
0.0
 10
11.1343794361711
 20
34.5532499795094
 30
0.0
 10
8.799461305236484
 20
33.37133063850315
 30
0.0
 10
7.826825394267628
 20
32.78270652102916
 30
0.0
  0
SPLINE
  5
B0
330
1F
100
AcDbEntity
  8
0
  6
Continuous
 62
     7
370
    25
100
AcDbSpline
210
0.0
220
0.0
230
1.0
 70
     8
 71
     3
 72
    12
 73
     8
 74
     0
 42
0.00000001
 43
0.00000001
 40
0.9804050879751373
 40
0.9804050879751373
 40
0.9804050879751373
 40
0.9804050879751373
 40
1.0
 40
1.0
 40
1.0
 40
1.03125
 40
1.033868322818202
 40
1.033868322818202
 40
1.033868322818202
 40
1.033868322818202
 10
21.01252077418986
 20
25.93936988128916
 30
0.0
 10
20.5034069436012
 20
26.0023503346623
 30
0.0
 10
19.99041760190787
 20
26.0340314136126
 30
0.0
 10
19.47742826021451
 20
26.0340314136126
 30
0.0
 10
18.65931196004556
 20
26.03403141361259
 30
0.0
 10
17.77264869742296
 20
25.94670270457165
 30
0.0
 10
16.90444988730008
 20
25.76654692427857
 30
0.0
 10
16.83744963822961
 20
25.75206717951478
 30
0.0
  0
SPLINE
  5
B2
330
1F
100
AcDbEntity
  8
0
  6
Continuous
 62
     7
370
    25
100
AcDbSpline
210
0.0
220
0.0
230
1.0
 70
     8
 71
     3
 72
    10
 73
     6
 74
     0
 42
0.00000001
 43
0.00000001
 40
0.2304050880257849
 40
0.2304050880257849
 40
0.2304050880257849
 40
0.2304050880257849
 40
0.25
 40
0.28125
 40
0.2838683228182012
 40
0.2838683228182012
 40
0.2838683228182012
 40
0.2838683228182012
 10
7.072089792049568
 20
15.06912392364016
 30
0.0
 10
7.009109339001007
 20
14.5600100943474
 30
0.0
 10
6.926903220174446
 20
13.22890445381103
 30
0.0
 10
7.064756969255432
 20
11.82925185082107
 30
0.0
 10
7.244912749548499
 20
10.96105304069819
 30
0.0
 10
7.259392494312289
 20
10.89405279162774
 30
0.0
  0
SPLINE
  5
B7
330
1F
100
AcDbEntity
  8
0
  6
Continuous
 62
     7
370
    25
100
AcDbSpline
210
0.0
220
0.0
230
1.0
 70
     8
 71
     3
 72
    13
 73
     9
 74
     0
 42
0.00000001
 43
0.00000001
 40
0.1753650937137198
 40
0.1753650937137198
 40
0.1753650937137198
 40
0.1753650937137198
 40
0.1875
 40
0.21875
 40
0.2499999999999999
 40
0.2812499999999999
 40
0.3124999999999999
 40
0.338906035593096
 40
0.338906035593096
 40
0.338906035593096
 40
0.338906035593096
 10
3.866683958866635
 20
21.44304537766732
 30
0.0
 10
3.665659508183178
 20
21.04629833234821
 30
0.0
 10
3.000957897233869
 20
19.60048604313714
 30
0.0
 10
2.203045043250917
 20
16.97011987432225
 30
0.0
 10
1.864619868696293
 20
13.53403141361259
 30
0.0
 10
2.203045043250945
 20
10.09794295290293
 30
0.0
 10
3.153528833292701
 20
6.964617812377886
 30
0.0
 10
4.124692102072864
 20
5.079590175538024
 30
0.0
 10
4.637603559305092
 20
4.258852343042144
 30
0.0
  0
SPLINE
  5
BA
330
1F
100
AcDbEntity
  8
0
  6
Continuous
 62
     7
370
    25
100
AcDbSpline
210
0.0
220
0.0
230
1.0
 70
     8
 71
     3
 72
    13
 73
     9
 74
     0
 42
0.00000001
 43
0.00000001
 40
0.1776407780879075
 40
0.1776407780879075
 40
0.1776407780879075
 40
0.1776407780879075
 40
0.1875000000000001
 40
0.2187500000000001
 40
0.2500000000000001
 40
0.2812500000000001
 40
0.3125000000000001
 40
0.3366254301555801
 40
0.3366254301555801
 40
0.3366254301555801
 40
0.3366254301555801
 10
-0.7368831624438021
 20
23.41475316290724
 30
0.0
 10
-0.9409331159841439
 20
22.99735468543092
 30
0.0
 10
-1.737885295687469
 20
21.23064168862297
 30
0.0
 10
-2.73249301873868
 20
17.95185943452501
 30
0.0
 10
-3.167611100308942
 20
13.5340314136126
 30
0.0
 10
-2.73249301873868
 20
9.116203392700168
 30
0.0
 10
-1.541790305682328
 20
5.190982589569185
 30
0.0
 10
-0.3598709646760734
 20
2.856064458634594
 30
0.0
 10
0.2287531527979392
 20
1.883428547665766
 30
0.0
  0
SPLINE
  5
BF
330
1F
100
AcDbEntity
  8
0
  6
Continuous
 62
     7
370
    25
100
AcDbSpline
210
0.0
220
0.0
230
1.0
 70
     8
 71
     3
 72
    14
 73
    10
 74
     0
 42
0.00000001
 43
0.00000001
 40
0.161983149117517
 40
0.161983149117517
 40
0.161983149117517
 40
0.161983149117517
 40
0.1875
 40
0.21875
 40
0.2500000000000001
 40
0.2812500000000001
 40
0.3125000000000001
 40
0.3437500000000001
 40
0.3522877590710631
 40
0.3522877590710631
 40
0.3522877590710631
 40
0.3522877590710631
 10
-8.178042532009044
 20
30.60511734104189
 30
0.0
 10
-9.090270058186606
 20
29.12709242700894
 30
0.0
 10
-10.85603927202578
 20
25.67617249552534
 30
0.0
 10
-12.60356914271785
 20
19.91533855493052
 30
0.0
 10
-13.23207303831936
 20
13.5340314136126
 30
0.0
 10
-12.60356914271782
 20
7.152724272294662
 30
0.0
 10
-10.74221050815227
 20
1.016647185739298
 30
0.0
 10
-8.451814940799052
 20
-3.268381531724297
 30
0.0
 10
-6.886601421865951
 20
-5.479717121615723
 30
0.0
 10
-6.538262906492815
 20
-5.944895874600366
 30
0.0
  0
SPLINE
  5
C2
330
1F
100
AcDbEntity
  8
0
  6
Continuous
 62
     7
370
    25
100
AcDbSpline
210
0.0
220
0.0
230
1.0
 70
     8
 71
     3
 72
    14
 73
    10
 74
     0
 42
0.00000001
 43
0.00000001
 40
0.1609915865280162
 40
0.1609915865280162
 40
0.1609915865280162
 40
0.1609915865280162
 40
0.1875
 40
0.21875
 40
0.25
 40
0.2812499999999999
 40
0.3125
 40
0.3437499999999999
 40
0.3532756791363273
 40
0.3532756791363273
 40
0.3532756791363273
 40
0.3532756791363273
 10
-3.832916659744778
 20
28.12431089688178
 30
0.0
 10
-4.642878493181457
 20
26.83010091116646
 30
0.0
 10
-6.172693752633352
 20
23.8630655387909
 30
0.0
 10
-7.668031080728277
 20
18.93359899472777
 30
0.0
 10
-8.199842069314123
 20
13.5340314136126
 30
0.0
 10
-7.668031080728277
 20
8.134463832497406
 30
0.0
 10
-6.093035313018941
 20
2.942398605412129
 30
0.0
 10
-4.12805620867368
 20
-0.7338187307336097
 30
0.0
 10
-2.764679940675308
 20
-2.647345992928742
 30
0.0
 10
-2.433108194681954
 20
-3.084456709010468
 30
0.0
  0
SPLINE
  5
C6
330
1F
100
AcDbEntity
  8
0
  6
Continuous
 62
     7
370
    25
100
AcDbSpline
210
0.0
220
0.0
230
1.0
 70
     8
 71
     3
 72
    22
 73
    18
 74
     0
 42
0.00000001
 43
0.00000001
 40
0.4038141222510558
 40
0.4038141222510558
 40
0.4038141222510558
 40
0.4038141222510558
 40
0.4062499943154494
 40
0.4218738224876442
 40
0.4374999943152824
 40
0.4531238224874716
 40
0.468749994315113
 40
0.4843738224873282
 40
0.4999999943149463
 40
0.5156238224872297
 40
0.5312499943147775
 40
0.5468738224868857
 40
0.5624999943146084
 40
0.5781238224866325
 40
0.5937499943144403
 40
0.6093738224864714
 40
0.6104535165735687
 40
0.6104535165735687
 40
0.6104535165735687
 40
0.6104535165735687
 10
-1.831234523339109
 20
-17.32359063832863
 30
0.0
 10
-1.67379631587028
 20
-17.4322891461851
 30
0.0
 10
-0.5004002991341738
 20
-18.2292983776832
 30
0.0
 10
1.771138709231901
 20
-19.5919092665385
 30
0.0
 10
5.103724431239797
 20
-21.1666788797905
 30
0.0
 10
8.573910532433587
 20
-22.40972933519372
 30
0.0
 10
12.14968386520965
 20
-23.30408497025267
 30
0.0
 10
15.79569842715042
 20
-23.84625083578587
 30
0.0
 10
19.47724440682921
 20
-24.02582290712747
 30
0.0
 10
23.15897313465684
 20
-23.8462690526501
 30
0.0
 10
26.80481201367677
 20
-23.30415670614811
 30
0.0
 10
30.38076813777263
 20
-22.40978328616444
 30
0.0
 10
33.85079237017263
 20
-21.16681959317209
 30
0.0
 10
37.18355391130476
 20
-19.59199688446853
 30
0.0
 10
40.3444123775987
 20
-17.69594821342691
 30
0.0
 10
42.38690202729806
 20
-16.18226506019273
 30
0.0
 10
43.39815620535376
 20
-15.34655990816217
 30
0.0
 10
43.46333718080889
 20
-15.29231840252114
 30
0.0
  0
SPLINE
  5
CA
330
1F
100
AcDbEntity
  8
0
  6
Continuous
 62
     7
370
    25
100
AcDbSpline
210
0.0
220
0.0
230
1.0
 70
     8
 71
     3
 72
    22
 73
    18
 74
     0
 42
0.00000001
 43
0.00000001
 40
0.403037504243807
 40
0.403037504243807
 40
0.403037504243807
 40
0.403037504243807
 40
0.4062499952637615
 40
0.4218740187403981
 40
0.4374999952637067
 40
0.4531240187404074
 40
0.4687499952636469
 40
0.4843740187402255
 40
0.4999999952635904
 40
0.5156240187403924
 40
0.531249995263534
 40
0.5468740187403217
 40
0.5624999952634749
 40
0.5781240187401573
 40
0.5937499952634177
 40
0.6093740187403051
 40
0.6112339414098796
 40
0.6112339414098796
 40
0.6112339414098796
 40
0.6112339414098796
 10
-6.273366584885892
 20
-23.36991556974512
 30
0.0
 10
-6.025045204944429
 20
-23.54314888148216
 30
0.0
 10
-4.558794495977847
 20
-24.54427714059358
 30
0.0
 10
-1.77010281120854
 20
-26.2171061656002
 30
0.0
 10
2.229017637460085
 20
-28.10683500908184
 30
0.0
 10
6.393224771300887
 20
-29.59848688211535
 30
0.0
 10
10.68417105049452
 20
-30.67171541966283
 30
0.0
 10
15.05937095615475
 20
-31.32230910954983
 30
0.0
 10
19.47724440679816
 20
-31.53779377030839
 30
0.0
 10
23.89530060556461
 20
-31.32232732639406
 30
0.0
 10
28.27032482849567
 20
-30.67178715570452
 30
0.0
 10
32.56145389828868
 20
-29.59854083258122
 30
0.0
 10
36.72549916615703
 20
-28.10697572439388
 30
0.0
 10
40.72479542334489
 20
-26.21719377639548
 30
0.0
 10
44.5178398117502
 20
-23.94192374130576
 30
0.0
 10
47.02797718014437
 20
-22.08166564136424
 30
0.0
 10
48.29559566588262
 20
-21.02881561257103
 30
0.0
 10
48.42978082793872
 20
-20.9160258313696
 30
0.0
  0
CIRCLE
  5
CF
330
1F
100
AcDbEntity
  8
0
  6
Continuous
 62
     7
370
    25
100
AcDbCircle
 10
54.4774282602
 20
76.9746374065
 30
0.0
 40
2.0
  0
CIRCLE
  5
D0
330
1F
100
AcDbEntity
  8
0
  6
Continuous
 62
     7
370
    25
100
AcDbCircle
 10
-15.5225717398
 20
76.9746374065
 30
0.0
 40
1.999999999999977
  0
CIRCLE
  5
D5
330
1F
100
AcDbEntity
  8
0
  6
Continuous
 62
     7
370
    25
100
AcDbCircle
 10
366.8288497442
 20
-21.4659685864
 30
0.0
 40
1.5
  0
CIRCLE
  5
D6
330
1F
100
AcDbEntity
  8
0
  6
Continuous
 62
     7
370
    25
100
AcDbCircle
 10
366.8288497442
 20
68.5340314136
 30
0.0
 40
1.5
  0
CIRCLE
  5
EB
330
1F
100
AcDbEntity
  8
0
  6
Continuous
 62
     7
370
    25
100
AcDbCircle
 10
77.0271759162
 20
-40.4659685864
 30
0.0
 40
1.999999999999993
  0
CIRCLE
  5
EC
330
1F
100
AcDbEntity
  8
0
  6
Continuous
 62
     7
370
    25
100
AcDbCircle
 10
302.5539759162
 20
87.5340314136
 30
0.0
 40
2.000000000000028
  0
CIRCLE
  5
ED
330
1F
100
AcDbEntity
  8
0
  6
Continuous
 62
     7
370
    25
100
AcDbCircle
 10
302.5539759162
 20
-40.4659685864
 30
0.0
 40
2.0
  0
CIRCLE
  5
EE
330
1F
100
AcDbEntity
  8
0
  6
Continuous
 62
     7
370
    25
100
AcDbCircle
 10
77.0271759162
 20
87.5340314136
 30
0.0
 40
2.000000000000014
  0
LINE
  5
EF
330
1F
100
AcDbEntity
  8
0
  6
Continuous
 62
     7
370
    25
100
AcDbLine
 10
48.3955127802
 20
41.4630349988
 30
0.0
 11
49.4167463407
 21
42.5801909922
 31
0.0
  0
LINE
  5
F0
330
1F
100
AcDbEntity
  8
0
  6
Continuous
 62
     7
370
    25
100
AcDbLine
 10
51.8968003735
 20
-12.7145635126
 30
0.0
 11
50.7796777058
 21
-11.6933604164
 31
0.0
  0
LINE
  5
F1
330
1F
100
AcDbEntity
  8
0
  6
Continuous
 62
     7
370
    25
100
AcDbLine
 10
-12.9419438531
 20
39.7826263398
 30
0.0
 11
-11.8248210423
 21
38.7614231129
 31
0.0
  0
LINE
  5
F2
330
1F
100
AcDbEntity
  8
0
  6
Continuous
 62
     7
370
    25
100
AcDbLine
 10
-9.4406562586
 20
-14.3949721703
 30
0.0
 11
-10.4618898203
 21
-15.5121281651
 31
0.0
  0
LINE
  5
F3
330
1F
100
AcDbEntity
  8
0
  6
Continuous
 62
     7
370
    25
100
AcDbLine
 10
21.8501140123
 20
7.9779210546
 30
0.0
 11
23.5078207988
 21
6.4625500466
 31
0.0
  0
LINE
  5
F4
330
1F
100
AcDbEntity
  8
0
  6
Continuous
 62
     7
370
    25
100
AcDbLine
 10
16.0963959273
 20
6.1301264726
 30
0.0
 11
17.6117353716
 21
7.7877987308
 31
0.0
  0
LINE
  5
F5
330
1F
100
AcDbEntity
  8
0
  6
Continuous
 62
     7
370
    25
100
AcDbLine
 10
25.0335386193
 20
15.9067171657
 30
0.0
 11
26.5489096272
 21
17.5644239522
 31
0.0
  0
LINE
  5
F6
330
1F
100
AcDbEntity
  8
0
  6
Continuous
 62
     7
370
    25
100
AcDbLine
 10
26.8813332013
 20
10.1529990807
 30
0.0
 11
25.2236609431
 21
11.668338525
 31
0.0
  0
LINE
  5
F7
330
1F
100
AcDbEntity
  8
0
  6
Continuous
 62
     7
370
    25
100
AcDbLine
 10
-8.4515753231
 20
42.452115932
 30
0.0
 11
-9.5687313176
 21
43.4733494934
 31
0.0
  0
LINE
  5
F8
330
1F
100
AcDbEntity
  8
0
  6
Continuous
 62
     7
370
    25
100
AcDbLine
 10
45.7260231821
 20
45.9534035221
 30
0.0
 11
44.7048199574
 21
44.8362807139
 31
0.0
  0
LINE
  5
F9
330
1F
100
AcDbEntity
  8
0
  6
Continuous
 62
     7
370
    25
100
AcDbLine
 10
17.1047425081
 20
19.0901417727
 30
0.0
 11
15.4470357216
 21
20.6055127806
 31
0.0
  0
LINE
  5
FA
330
1F
100
AcDbEntity
  8
0
  6
Continuous
 62
     7
370
    25
100
AcDbLine
 10
22.8584605931
 20
20.9379363547
 30
0.0
 11
21.3431211488
 21
19.2802640965
 31
0.0
  0
LINE
  5
FB
330
1F
100
AcDbEntity
  8
0
  6
Continuous
 62
     7
370
    25
100
AcDbLine
 10
13.9213179012
 20
11.1613456615
 30
0.0
 11
12.4059468932
 21
9.503638875
 31
0.0
  0
LINE
  5
FC
330
1F
100
AcDbEntity
  8
0
  6
Continuous
 62
     7
370
    25
100
AcDbLine
 10
12.0735233192
 20
16.9150637465
 30
0.0
 11
13.7311955774
 21
15.3997243022
 31
0.0
  0
LINE
  5
FD
330
1F
100
AcDbEntity
  8
0
  6
Continuous
 62
     7
370
    25
100
AcDbLine
 10
47.4064318292
 20
-15.3840530916
 30
0.0
 11
48.5235878389
 21
-16.4052866669
 31
0.0
  0
LINE
  5
FE
330
1F
100
AcDbEntity
  8
0
  6
Continuous
 62
     7
370
    25
100
AcDbLine
 10
-6.771166666
 20
-18.8853406997
 30
0.0
 11
-5.7499634391
 21
-17.7682178889
 31
0.0
  0
LINE
  5
FF
330
1F
100
AcDbEntity
  8
0
  6
Continuous
 62
     7
370
    25
100
AcDbLine
 10
49.4774282602
 20
84.4746374065
 30
0.0
 11
-10.5225717398
 21
84.4746374065
 31
0.0
  0
LINE
  5
100
330
1F
100
AcDbEntity
  8
0
  6
Continuous
 62
     7
370
    25
100
AcDbLine
 10
-10.5225717398
 20
84.4746374065
 30
0.0
 11
-10.5225717398
 21
69.4746374065
 31
0.0
  0
LINE
  5
101
330
1F
100
AcDbEntity
  8
0
  6
Continuous
 62
     7
370
    25
100
AcDbLine
 10
-10.5225717398
 20
69.4746374065
 30
0.0
 11
49.4774282602
 21
69.4746374065
 31
0.0
  0
LINE
  5
102
330
1F
100
AcDbEntity
  8
0
  6
Continuous
 62
     7
370
    25
100
AcDbLine
 10
49.4774282602
 20
69.4746374065
 30
0.0
 11
49.4774282602
 21
84.4746374065
 31
0.0
  0
LINE
  5
103
330
1F
100
AcDbEntity
  8
0
  6
Continuous
 62
     7
370
    25
100
AcDbLine
 10
351.8288497442
 20
-11.4659685864
 30
0.0
 11
381.8288497442
 21
-11.4659685864
 31
0.0
  0
LINE
  5
104
330
1F
100
AcDbEntity
  8
0
  6
Continuous
 62
     7
370
    25
100
AcDbLine
 10
381.8288497442
 20
-11.4659685864
 30
0.0
 11
381.8288497442
 21
58.5340314136
 31
0.0
  0
LINE
  5
105
330
1F
100
AcDbEntity
  8
0
  6
Continuous
 62
     7
370
    25
100
AcDbLine
 10
381.8288497442
 20
58.5340314136
 30
0.0
 11
351.8288497442
 21
58.5340314136
 31
0.0
  0
LINE
  5
106
330
1F
100
AcDbEntity
  8
0
  6
Continuous
 62
     7
370
    25
100
AcDbLine
 10
351.8288497442
 20
58.5340314136
 30
0.0
 11
351.8288497442
 21
-11.4659685864
 31
0.0
  0
LINE
  5
107
330
1F
100
AcDbEntity
  8
0
  6
Continuous
 62
     7
370
    25
100
AcDbLine
 10
169.8480044351
 20
-46.4659685864
 30
0.0
 11
169.8480044351
 21
-91.4659685864
 31
0.0
  0
LINE
  5
108
330
1F
100
AcDbEntity
  8
0
  6
Continuous
 62
     7
370
    25
100
AcDbLine
 10
169.8480044351
 20
-91.4659685864
 30
0.0
 11
159.8480044351
 21
-91.4659685864
 31
0.0
  0
LINE
  5
109
330
1F
100
AcDbEntity
  8
0
  6
Continuous
 62
     7
370
    25
100
AcDbLine
 10
159.8480044351
 20
-91.4659685864
 30
0.0
 11
159.8480044351
 21
-46.4659685864
 31
0.0
  0
LINE
  5
10A
330
1F
100
AcDbEntity
  8
0
  6
Continuous
 62
     7
370
    25
100
AcDbLine
 10
159.8480044351
 20
-46.4659685864
 30
0.0
 11
-60.2094240838
 21
-46.4659685864
 31
0.0
  0
LINE
  5
10B
330
1F
100
AcDbEntity
  8
0
  6
Continuous
 62
     7
370
    25
100
AcDbLine
 10
-60.2094240838
 20
-46.4659685864
 30
0.0
 11
-60.2094240838
 21
93.5340314136
 31
0.0
  0
LINE
  5
10C
330
1F
100
AcDbEntity
  8
0
  6
Continuous
 62
     7
370
    25
100
AcDbLine
 10
-60.2094240838
 20
93.5340314136
 30
0.0
 11
159.8480044351
 21
93.5340314136
 31
0.0
  0
LINE
  5
10D
330
1F
100
AcDbEntity
  8
0
  6
Continuous
 62
     7
370
    25
100
AcDbLine
 10
159.8480044351
 20
93.5340314136
 30
0.0
 11
159.8480044351
 21
138.5340314136
 31
0.0
  0
LINE
  5
10E
330
1F
100
AcDbEntity
  8
0
  6
Continuous
 62
     7
370
    25
100
AcDbLine
 10
159.8480044351
 20
138.5340314136
 30
0.0
 11
169.8480044351
 21
138.5340314136
 31
0.0
  0
LINE
  5
10F
330
1F
100
AcDbEntity
  8
0
  6
Continuous
 62
     7
370
    25
100
AcDbLine
 10
169.8480044351
 20
138.5340314136
 30
0.0
 11
169.8480044351
 21
93.5340314136
 31
0.0
  0
LINE
  5
110
330
1F
100
AcDbEntity
  8
0
  6
Continuous
 62
     7
370
    25
100
AcDbLine
 10
169.8480044351
 20
93.5340314136
 30
0.0
 11
264.8480044351
 21
93.5340314136
 31
0.0
  0
LINE
  5
111
330
1F
100
AcDbEntity
  8
0
  6
Continuous
 62
     7
370
    25
100
AcDbLine
 10
264.8480044351
 20
93.5340314136
 30
0.0
 11
264.8480044351
 21
138.5340314136
 31
0.0
  0
LINE
  5
112
330
1F
100
AcDbEntity
  8
0
  6
Continuous
 62
     7
370
    25
100
AcDbLine
 10
264.8480044351
 20
138.5340314136
 30
0.0
 11
274.8480044351
 21
138.5340314136
 31
0.0
  0
LINE
  5
113
330
1F
100
AcDbEntity
  8
0
  6
Continuous
 62
     7
370
    25
100
AcDbLine
 10
274.8480044351
 20
138.5340314136
 30
0.0
 11
274.8480044351
 21
93.5340314136
 31
0.0
  0
LINE
  5
114
330
1F
100
AcDbEntity
  8
0
  6
Continuous
 62
     7
370
    25
100
AcDbLine
 10
274.8480044351
 20
93.5340314136
 30
0.0
 11
439.7905759162
 21
93.5340314136
 31
0.0
  0
LINE
  5
115
330
1F
100
AcDbEntity
  8
0
  6
Continuous
 62
     7
370
    25
100
AcDbLine
 10
439.7905759162
 20
93.5340314136
 30
0.0
 11
439.7905759162
 21
-46.4659685864
 31
0.0
  0
LINE
  5
116
330
1F
100
AcDbEntity
  8
0
  6
Continuous
 62
     7
370
    25
100
AcDbLine
 10
439.7905759162
 20
-46.4659685864
 30
0.0
 11
274.8480044351
 21
-46.4659685864
 31
0.0
  0
LINE
  5
117
330
1F
100
AcDbEntity
  8
0
  6
Continuous
 62
     7
370
    25
100
AcDbLine
 10
274.8480044351
 20
-46.4659685864
 30
0.0
 11
274.8480044351
 21
-91.4659685864
 31
0.0
  0
LINE
  5
118
330
1F
100
AcDbEntity
  8
0
  6
Continuous
 62
     7
370
    25
100
AcDbLine
 10
274.8480044351
 20
-91.4659685864
 30
0.0
 11
264.8480044351
 21
-91.4659685864
 31
0.0
  0
LINE
  5
119
330
1F
100
AcDbEntity
  8
0
  6
Continuous
 62
     7
370
    25
100
AcDbLine
 10
264.8480044351
 20
-91.4659685864
 30
0.0
 11
264.8480044351
 21
-46.4659685864
 31
0.0
  0
LINE
  5
11A
330
1F
100
AcDbEntity
  8
0
  6
Continuous
 62
     7
370
    25
100
AcDbLine
 10
264.8480044351
 20
-46.4659685864
 30
0.0
 11
169.8480044351
 21
-46.4659685864
 31
0.0
  0
ARC
  5
11B
330
1F
100
AcDbEntity
  8
0
  6
Continuous
 62
     7
370
    25
100
AcDbCircle
 10
53.920928532
 20
-10.5003130304
 30
0.0
 40
3.0
100
AcDbArc
 50
227.5684135642
 51
325.0997023785
  0
ARC
  5
11C
330
1F
100
AcDbEntity
  8
0
  6
Continuous
 62
     7
370
    25
100
AcDbCircle
 10
51.6309968229
 20
40.5560628338
 30
0.0
 40
2.99999999999998
100
AcDbArc
 50
40.0488411911
 51
137.5684135642
  0
ARC
  5
11D
330
1F
100
AcDbEntity
  8
0
  6
Continuous
 62
     7
370
    25
100
AcDbCircle
 10
50.6097641339
 20
39.4389070835
 30
0.0
 40
3.000000479132153
100
AcDbArc
 50
137.5684282208
 51
219.7661237236
  0
ARC
  5
11E
330
1F
100
AcDbEntity
  8
0
  6
Continuous
 62
     7
370
    25
100
AcDbCircle
 10
52.8038012416
 20
-9.4791119341
 30
0.0
 40
2.999995404963624
100
AcDbArc
 50
145.3779589352
 51
227.5684529564
  0
ARC
  5
11F
330
1F
100
AcDbEntity
  8
0
  6
Continuous
 62
     7
370
    25
100
AcDbCircle
 10
-13.8489451302
 20
36.5471743917
 30
0.0
 40
2.99999595372898
100
AcDbArc
 50
325.3779481329
 51
47.5684482519
  0
ARC
  5
120
330
1F
100
AcDbEntity
  8
0
  6
Continuous
 62
     7
370
    25
100
AcDbCircle
 10
-14.9660720115
 20
37.5683758576
 30
0.0
 40
2.999999999999942
100
AcDbArc
 50
47.5684135642
 51
145.0997023752
  0
ARC
  5
121
330
1F
100
AcDbEntity
  8
0
  6
Continuous
 62
     7
370
    25
100
AcDbCircle
 10
-12.6761403026
 20
-13.4880000066
 30
0.0
 40
2.999999999999943
100
AcDbArc
 50
220.0488411776
 51
317.5684135642
  0
ARC
  5
122
330
1F
100
AcDbEntity
  8
0
  6
Continuous
 62
     7
370
    25
100
AcDbCircle
 10
-11.6549073992
 20
-12.3708441955
 30
0.0
 40
3.000000361930837
100
AcDbArc
 50
317.5684246356
 51
39.7661256775
  0
ARC
  5
123
330
1F
100
AcDbEntity
  8
0
  6
Continuous
 62
     7
370
    25
100
AcDbCircle
 10
37.1581584501
 20
-10.0803086344
 30
0.0
 40
2.999999999999991
100
AcDbArc
 50
306.8268686491
 51
37.8072463809
  0
ARC
  5
124
330
1F
100
AcDbEntity
  8
0
  6
Continuous
 62
     7
370
    25
100
AcDbCircle
 10
37.908973543
 20
-10.7666564453
 30
0.0
 40
3.0
100
AcDbArc
 50
57.3295807474
 51
127.1822532664
  0
ARC
  5
125
330
1F
100
AcDbEntity
  8
0
  6
Continuous
 62
     7
370
    25
100
AcDbCircle
 10
3.2956254061
 20
-12.3193536869
 30
0.0
 40
3.000000000000056
100
AcDbArc
 50
57.9602291358
 51
127.8071068233
  0
ARC
  5
126
330
1F
100
AcDbEntity
  8
0
  6
Continuous
 62
     7
370
    25
100
AcDbCircle
 10
3.9819829348
 20
-11.5685279635
 30
0.0
 40
2.999999999999983
100
AcDbArc
 50
147.329720305
 51
238.3173806379
  0
ARC
  5
127
330
1F
100
AcDbEntity
  8
0
  6
Continuous
 62
     7
370
    25
100
AcDbCircle
 10
29.5747709308
 20
-3.1480539788
 30
0.0
 40
2.999999999999967
100
AcDbArc
 50
301.1816738226
 51
37.5852117712
  0
ARC
  5
128
330
1F
100
AcDbEntity
  8
0
  6
Continuous
 62
     7
370
    25
100
AcDbCircle
 10
30.3424933794
 20
-3.8498574281
 30
0.0
 40
3.000000000000003
100
AcDbArc
 50
57.5516153571
 51
122.0028887262
  0
ARC
  5
129
330
1F
100
AcDbEntity
  8
0
  6
Continuous
 62
     7
370
    25
100
AcDbCircle
 10
10.2124879566
 20
-4.7528040225
 30
0.0
 40
3.000000000000019
100
AcDbArc
 50
63.1295029832
 51
127.5854215771
  0
ARC
  5
12A
330
1F
100
AcDbEntity
  8
0
  6
Continuous
 62
     7
370
    25
100
AcDbCircle
 10
10.9142768065
 20
-3.9850975447
 30
0.0
 40
3.000000000000021
100
AcDbArc
 50
147.5514055513
 51
243.9477818423
  0
ARC
  5
12B
330
1F
100
AcDbEntity
  8
0
  6
Continuous
 62
     7
370
    25
100
AcDbCircle
 10
21.4836926404
 20
4.2482995644
 30
0.0
 40
2.999999999999992
100
AcDbArc
 50
282.1949168401
 51
47.5684135642
  0
ARC
  5
12C
330
1F
100
AcDbEntity
  8
0
  6
Continuous
 62
     7
370
    25
100
AcDbCircle
 10
19.8259858538
 20
5.7636705723
 30
0.0
 40
2.999999999999992
100
AcDbArc
 50
47.5684135642
 51
137.5684135642
  0
ARC
  5
12D
330
1F
100
AcDbEntity
  8
0
  6
Continuous
 62
     7
370
    25
100
AcDbCircle
 10
18.3106464095
 20
4.1059983141
 30
0.0
 40
3.000000000000032
100
AcDbArc
 50
137.5684135642
 51
262.9479932747
  0
ARC
  5
12E
330
1F
100
AcDbEntity
  8
0
  6
Continuous
 62
     7
370
    25
100
AcDbCircle
 10
28.9054613597
 20
12.3672495629
 30
0.0
 40
2.999999999999938
100
AcDbArc
 50
227.5684135642
 51
352.9479934991
  0
ARC
  5
12F
330
1F
100
AcDbEntity
  8
0
  6
Continuous
 62
     7
370
    25
100
AcDbCircle
 10
28.7631601094
 20
15.5402957938
 30
0.0
 40
2.99999999999999
100
AcDbArc
 50
12.1949168401
 51
137.5684135642
  0
ARC
  5
130
330
1F
100
AcDbEntity
  8
0
  6
Continuous
 62
     7
370
    25
100
AcDbCircle
 10
27.2477891015
 20
13.8825890072
 30
0.0
 40
3.000000000000027
100
AcDbArc
 50
137.5684135642
 51
227.5684135642
  0
ARC
  5
131
330
1F
100
AcDbEntity
  8
0
  6
Continuous
 62
     7
370
    25
100
AcDbCircle
 10
37.7642636964
 20
4.26909111
 30
0.0
 40
3.000000000000103
100
AcDbArc
 50
153.1295029832
 51
217.5854215771
  0
ARC
  5
132
330
1F
100
AcDbEntity
  8
0
  6
Continuous
 62
     7
370
    25
100
AcDbCircle
 10
36.9965572185
 20
4.9708799599
 30
0.0
 40
3.000000000000048
100
AcDbArc
 50
237.5514055513
 51
333.9477818423
  0
ARC
  5
133
330
1F
100
AcDbEntity
  8
0
  6
Continuous
 62
     7
370
    25
100
AcDbCircle
 10
36.1595136526
 20
23.6313740842
 30
0.0
 40
3.000000000000015
100
AcDbArc
 50
31.1816738226
 51
127.5852117712
  0
ARC
  5
134
330
1F
100
AcDbEntity
  8
0
  6
Continuous
 62
     7
370
    25
100
AcDbCircle
 10
36.8613171019
 20
24.3990965328
 30
0.0
 40
3.000000000000054
100
AcDbArc
 50
147.5516153571
 51
212.0028887262
  0
ARC
  5
135
330
1F
100
AcDbEntity
  8
0
  6
Continuous
 62
     7
370
    25
100
AcDbCircle
 10
45.3308133608
 20
-2.6477714405
 30
0.0
 40
2.999999999999998
100
AcDbArc
 50
147.9602291358
 51
217.8071068233
  0
ARC
  5
136
330
1F
100
AcDbEntity
  8
0
  6
Continuous
 62
     7
370
    25
100
AcDbCircle
 10
44.5799876374
 20
-1.9614139118
 30
0.0
 40
3.000000000000031
100
AcDbArc
 50
237.329720305
 51
328.3173806341
  0
ARC
  5
137
330
1F
100
AcDbEntity
  8
0
  6
Continuous
 62
     7
370
    25
100
AcDbCircle
 10
43.0917683082
 20
31.2147616035
 30
0.0
 40
2.999999999999977
100
AcDbArc
 50
36.8268686491
 51
127.8072463809
  0
ARC
  5
138
330
1F
100
AcDbEntity
  8
0
  6
Continuous
 62
     7
370
    25
100
AcDbCircle
 10
43.7781161191
 20
31.9655766964
 30
0.0
 40
3.000000000000037
100
AcDbArc
 50
147.3295807474
 51
217.1822532664
  0
ARC
  5
139
330
1F
100
AcDbEntity
  8
0
  6
Continuous
 62
     7
370
    25
100
AcDbCircle
 10
-7.5446031592
 20
45.6875999756
 30
0.0
 40
2.999999999999917
100
AcDbArc
 50
130.0488412779
 51
227.5684135642
  0
ARC
  5
13A
330
1F
100
AcDbEntity
  8
0
  6
Continuous
 62
     7
370
    25
100
AcDbCircle
 10
-6.4274473486
 20
44.6663670734
 30
0.0
 40
3.000000362434015
100
AcDbArc
 50
227.568424651
 51
309.7661258016
  0
ARC
  5
13B
330
1F
100
AcDbEntity
  8
0
  6
Continuous
 62
     7
370
    25
100
AcDbCircle
 10
42.4905715477
 20
46.8604040817
 30
0.0
 40
2.999995238007046
100
AcDbArc
 50
235.377935282
 51
317.5684543877
  0
ARC
  5
13C
330
1F
100
AcDbEntity
  8
0
  6
Continuous
 62
     7
370
    25
100
AcDbCircle
 10
43.5117726998
 20
47.9775316806
 30
0.0
 40
3.000000000000035
100
AcDbArc
 50
317.5684135642
 51
55.0997021387
  0
ARC
  5
13D
330
1F
100
AcDbEntity
  8
0
  6
Continuous
 62
     7
370
    25
100
AcDbCircle
 10
1.7966980704
 20
37.1483714616
 30
0.0
 40
2.999999999999989
100
AcDbArc
 50
126.8268686491
 51
217.8072463809
  0
ARC
  5
13E
330
1F
100
AcDbEntity
  8
0
  6
Continuous
 62
     7
370
    25
100
AcDbCircle
 10
1.0458829774
 20
37.8347192725
 30
0.0
 40
2.999999999999965
100
AcDbArc
 50
237.3295807474
 51
307.1822532664
  0
ARC
  5
13F
330
1F
100
AcDbEntity
  8
0
  6
Continuous
 62
     7
370
    25
100
AcDbCircle
 10
35.6592311143
 20
39.3874165142
 30
0.0
 40
3.000000000000009
100
AcDbArc
 50
237.9602291358
 51
307.8071068233
  0
ARC
  5
140
330
1F
100
AcDbEntity
  8
0
  6
Continuous
 62
     7
370
    25
100
AcDbCircle
 10
34.9728735856
 20
38.6365907908
 30
0.0
 40
2.999999999999976
100
AcDbArc
 50
327.329720305
 51
58.3173806341
  0
ARC
  5
141
330
1F
100
AcDbEntity
  8
0
  6
Continuous
 62
     7
370
    25
100
AcDbCircle
 10
9.3800855897
 20
30.216116806
 30
0.0
 40
2.999999999999997
100
AcDbArc
 50
121.1816738226
 51
217.5852117712
  0
ARC
  5
142
330
1F
100
AcDbEntity
  8
0
  6
Continuous
 62
     7
370
    25
100
AcDbCircle
 10
8.612363141
 20
30.9179202553
 30
0.0
 40
3.000000000000061
100
AcDbArc
 50
237.5516153571
 51
302.0028887262
  0
ARC
  5
143
330
1F
100
AcDbEntity
  8
0
  6
Continuous
 62
     7
370
    25
100
AcDbCircle
 10
28.7423685638
 20
31.8208668498
 30
0.0
 40
2.999999999999998
100
AcDbArc
 50
243.1295029832
 51
307.5854215771
  0
ARC
  5
144
330
1F
100
AcDbEntity
  8
0
  6
Continuous
 62
     7
370
    25
100
AcDbCircle
 10
28.0405797139
 20
31.0531603719
 30
0.0
 40
2.999999999999946
100
AcDbArc
 50
327.5514055513
 51
63.9477818423
  0
ARC
  5
145
330
1F
100
AcDbEntity
  8
0
  6
Continuous
 62
     7
370
    25
100
AcDbCircle
 10
17.47116388
 20
22.8197632628
 30
0.0
 40
3.000000000000005
100
AcDbArc
 50
102.1949168401
 51
227.5684135642
  0
ARC
  5
146
330
1F
100
AcDbEntity
  8
0
  6
Continuous
 62
     7
370
    25
100
AcDbCircle
 10
19.1288706666
 20
21.3043922549
 30
0.0
 40
3.000000000000017
100
AcDbArc
 50
227.5684135642
 51
317.5684135642
  0
ARC
  5
147
330
1F
100
AcDbEntity
  8
0
  6
Continuous
 62
     7
370
    25
100
AcDbCircle
 10
20.6442101109
 20
22.9620645131
 30
0.0
 40
2.999999999999998
100
AcDbArc
 50
317.5684135642
 51
82.9479932367
  0
ARC
  5
148
330
1F
100
AcDbEntity
  8
0
  6
Continuous
 62
     7
370
    25
100
AcDbCircle
 10
10.0493951607
 20
14.7008132643
 30
0.0
 40
2.999999999999983
100
AcDbArc
 50
47.5684135642
 51
172.9479934991
  0
ARC
  5
149
330
1F
100
AcDbEntity
  8
0
  6
Continuous
 62
     7
370
    25
100
AcDbCircle
 10
10.191696411
 20
11.5277670334
 30
0.0
 40
2.999999999999994
100
AcDbArc
 50
192.1949168401
 51
317.5684135642
  0
ARC
  5
14A
330
1F
100
AcDbEntity
  8
0
  6
Continuous
 62
     7
370
    25
100
AcDbCircle
 10
11.7070674189
 20
13.18547382
 30
0.0
 40
3.000000000000003
100
AcDbArc
 50
317.5684135642
 51
47.5684135642
  0
ARC
  5
14B
330
1F
100
AcDbEntity
  8
0
  6
Continuous
 62
     7
370
    25
100
AcDbCircle
 10
1.1905928241
 20
22.7989717172
 30
0.0
 40
3.000000000000009
100
AcDbArc
 50
333.1295029832
 51
37.5854215771
  0
ARC
  5
14C
330
1F
100
AcDbEntity
  8
0
  6
Continuous
 62
     7
370
    25
100
AcDbCircle
 10
1.9582993019
 20
22.0971828673
 30
0.0
 40
2.999999999999977
100
AcDbArc
 50
57.5514055513
 51
153.9477818423
  0
ARC
  5
14D
330
1F
100
AcDbEntity
  8
0
  6
Continuous
 62
     7
370
    25
100
AcDbCircle
 10
2.7953428679
 20
3.4366887431
 30
0.0
 40
2.999999999999956
100
AcDbArc
 50
211.1816738226
 51
307.5852117712
  0
ARC
  5
14E
330
1F
100
AcDbEntity
  8
0
  6
Continuous
 62
     7
370
    25
100
AcDbCircle
 10
2.0935394185
 20
2.6689662944
 30
0.0
 40
2.999999999999886
100
AcDbArc
 50
327.5516153571
 51
32.0028887262
  0
ARC
  5
14F
330
1F
100
AcDbEntity
  8
0
  6
Continuous
 62
     7
370
    25
100
AcDbCircle
 10
-6.3759568403
 20
29.7158342677
 30
0.0
 40
3.000000000000027
100
AcDbArc
 50
327.9602291358
 51
37.8071068233
  0
ARC
  5
150
330
1F
100
AcDbEntity
  8
0
  6
Continuous
 62
     7
370
    25
100
AcDbCircle
 10
-5.6251311169
 20
29.029476739
 30
0.0
 40
3.000000000000035
100
AcDbArc
 50
57.329720305
 51
148.3173806341
  0
ARC
  5
151
330
1F
100
AcDbEntity
  8
0
  6
Continuous
 62
     7
370
    25
100
AcDbCircle
 10
-4.1369117878
 20
-4.1466987762
 30
0.0
 40
2.999999999999958
100
AcDbArc
 50
216.8268686491
 51
307.8072463809
  0
ARC
  5
152
330
1F
100
AcDbEntity
  8
0
  6
Continuous
 62
     7
370
    25
100
AcDbCircle
 10
-4.8232595987
 20
-4.8975138692
 30
0.0
 40
2.99999999999996
100
AcDbArc
 50
327.3295807474
 51
37.182253884
  0
ARC
  5
153
330
1F
100
AcDbEntity
  8
0
  6
Continuous
 62
     7
370
    25
100
AcDbCircle
 10
46.4994596804
 20
-18.6195371492
 30
0.0
 40
3.000000000000027
100
AcDbArc
 50
310.0488411776
 51
47.5684135642
  0
ARC
  5
154
330
1F
100
AcDbEntity
  8
0
  6
Continuous
 62
     7
370
    25
100
AcDbCircle
 10
45.3823038614
 20
-17.5983042573
 30
0.0
 40
3.000000375773475
100
AcDbArc
 50
47.5684250591
 51
129.7661299975
  0
ARC
  5
155
330
1F
100
AcDbEntity
  8
0
  6
Continuous
 62
     7
370
    25
100
AcDbCircle
 10
-3.5357147179
 20
-19.7923419768
 30
0.0
 40
2.999995953771441
100
AcDbArc
 50
55.377948137
 51
137.5684482516
  0
ARC
  5
156
330
1F
100
AcDbEntity
  8
0
  6
Continuous
 62
     7
370
    25
100
AcDbCircle
 10
-4.5569161838
 20
-20.9094688582
 30
0.0
 40
3.000000000000036
100
AcDbArc
 50
137.5684135642
 51
235.0997023783
  0
ENDSEC
  0
SECTION
  2
OBJECTS
  0
DICTIONARY
  5
C
330
0
100
AcDbDictionary
281
     1
  3
ACAD_GROUP
350
D
  3
ACAD_LAYOUT
350
1A
  3
ACAD_MLINESTYLE
350
17
  3
ACAD_PLOTSETTINGS
350
19
  3
ACAD_PLOTSTYLENAME
350
E
  3
ACAD_SCALELIST
350
47
  3
DWGPROPS
350
157
  0
DICTIONARY
  5
D
102
{ACAD_REACTORS
330
C
102
}
330
C
100
AcDbDictionary
281
     1
  0
DICTIONARY
  5
1A
102
{ACAD_REACTORS
330
C
102
}
330
C
100
AcDbDictionary
281
     1
  3
Layout1
350
1E
  3
Layout2
350
26
  3
Model
350
22
  0
DICTIONARY
  5
17
102
{ACAD_REACTORS
330
C
102
}
330
C
100
AcDbDictionary
281
     1
  3
Standard
350
18
  0
DICTIONARY
  5
19
102
{ACAD_REACTORS
330
C
102
}
330
C
100
AcDbDictionary
281
     1
  0
ACDBDICTIONARYWDFLT
  5
E
102
{ACAD_REACTORS
330
C
102
}
330
C
100
AcDbDictionary
281
     1
  3
Normal
350
F
100
AcDbDictionaryWithDefault
340
F
  0
DICTIONARY
  5
47
102
{ACAD_REACTORS
330
C
102
}
330
C
100
AcDbDictionary
281
     1
  3
A0
350
48
  3
A1
350
49
  3
A2
350
4A
  3
A3
350
4B
  3
A4
350
4C
  3
A5
350
4D
  3
A6
350
4E
  3
A7
350
4F
  3
A8
350
50
  3
A9
350
51
  3
B0
350
52
  3
B1
350
53
  3
B2
350
54
  3
B3
350
55
  3
B4
350
56
  3
B5
350
57
  3
B6
350
58
  0
XRECORD
  5
157
102
{ACAD_REACTORS
330
C
102
}
330
C
100
AcDbXrecord
280
     1
  1
DWGPROPS COOKIE
  2

  3

  4

  6

  7

  8
Udula
  9

300
=
301
=
302
=
303
=
304
=
305
=
306
=
307
=
308
=
309
=
 40
0.0
 41
2460277.779428415
 42
2460277.779993681
  1

 90
        0
  0
LAYOUT
  5
1E
102
{ACAD_REACTORS
330
1A
102
}
330
1A
100
AcDbPlotSettings
  1

  2
none_device
  4

  6

 40
0.0
 41
0.0
 42
0.0
 43
0.0
 44
0.0
 45
0.0
 46
0.0
 47
0.0
 48
0.0
 49
0.0
140
0.0
141
0.0
142
1.0
143
1.0
 70
   688
 72
     1
 73
     0
 74
     5
  7

 75
    16
147
1.0
148
0.0
149
0.0
100
AcDbLayout
  1
Layout1
 70
     1
 71
     1
 10
0.0
 20
0.0
 11
420.0
 21
297.0
 12
0.0
 22
0.0
 32
0.0
 14
1.0000000000E+20
 24
1.0000000000E+20
 34
1.0000000000E+20
 15
-1.0000000000E+20
 25
-1.0000000000E+20
 35
-1.0000000000E+20
146
0.0
 13
0.0
 23
0.0
 33
0.0
 16
1.0
 26
0.0
 36
0.0
 17
0.0
 27
1.0
 37
0.0
 76
     0
330
1B
  0
LAYOUT
  5
26
102
{ACAD_REACTORS
330
1A
102
}
330
1A
100
AcDbPlotSettings
  1

  2
none_device
  4

  6

 40
0.0
 41
0.0
 42
0.0
 43
0.0
 44
0.0
 45
0.0
 46
0.0
 47
0.0
 48
0.0
 49
0.0
140
0.0
141
0.0
142
1.0
143
1.0
 70
   688
 72
     1
 73
     0
 74
     5
  7

 75
    16
147
1.0
148
0.0
149
0.0
100
AcDbLayout
  1
Layout2
 70
     1
 71
     2
 10
0.0
 20
0.0
 11
0.0
 21
0.0
 12
0.0
 22
0.0
 32
0.0
 14
0.0
 24
0.0
 34
0.0
 15
0.0
 25
0.0
 35
0.0
146
0.0
 13
0.0
 23
0.0
 33
0.0
 16
1.0
 26
0.0
 36
0.0
 17
0.0
 27
1.0
 37
0.0
 76
     0
330
23
  0
LAYOUT
  5
22
102
{ACAD_REACTORS
330
1A
102
}
330
1A
100
AcDbPlotSettings
  1

  2
none_device
  4
ANSI_A_(11.00_x_8.50_Inches)
  6

 40
6.35
 41
19.05
 42
6.35000508
 43
19.05000254
 44
279.4
 45
215.9
 46
28.3555733762
 47
75.8806901436
 48
0.0
 49
0.0
140
0.0
141
0.0
142
0.02178
143
1.0
 70
  1696
 72
     0
 73
     0
 74
     0
  7

 75
     0
147
0.0179189148
148
-1300.4909072572
149
0.0
100
AcDbLayout
  1
Model
 70
     1
 71
     0
 10
0.0
 20
0.0
 11
420.0
 21
297.0
 12
0.0
 22
0.0
 32
0.0
 14
-60.2094240838
 24
-91.4659685864
 34
0.0
 15
439.7905759162
 25
138.5340314136
 35
0.0
146
0.0
 13
0.0
 23
0.0
 33
0.0
 16
1.0
 26
0.0
 36
0.0
 17
0.0
 27
1.0
 37
0.0
 76
     0
330
1F
331
29
  0
MLINESTYLE
  5
18
102
{ACAD_REACTORS
330
17
102
}
330
17
100
AcDbMlineStyle
  2
Standard
 70
     0
  3

 62
   256
 51
90.0
 52
90.0
 71
     2
 49
0.5
 62
   256
  6
BYLAYER
 49
-0.5
 62
   256
  6
BYLAYER
  0
ACDBPLACEHOLDER
  5
F
102
{ACAD_REACTORS
330
E
102
}
330
E
  0
SCALE
  5
48
102
{ACAD_REACTORS
330
47
102
}
330
47
100
AcDbScale
 70
     0
300
1:1
140
1.0
141
1.0
290
     1
  0
SCALE
  5
49
102
{ACAD_REACTORS
330
47
102
}
330
47
100
AcDbScale
 70
     0
300
1:2
140
1.0
141
2.0
290
     0
  0
SCALE
  5
4A
102
{ACAD_REACTORS
330
47
102
}
330
47
100
AcDbScale
 70
     0
300
1:4
140
1.0
141
4.0
290
     0
  0
SCALE
  5
4B
102
{ACAD_REACTORS
330
47
102
}
330
47
100
AcDbScale
 70
     0
300
1:5
140
1.0
141
5.0
290
     0
  0
SCALE
  5
4C
102
{ACAD_REACTORS
330
47
102
}
330
47
100
AcDbScale
 70
     0
300
1:8
140
1.0
141
8.0
290
     0
  0
SCALE
  5
4D
102
{ACAD_REACTORS
330
47
102
}
330
47
100
AcDbScale
 70
     0
300
1:10
140
1.0
141
10.0
290
     0
  0
SCALE
  5
4E
102
{ACAD_REACTORS
330
47
102
}
330
47
100
AcDbScale
 70
     0
300
1:16
140
1.0
141
16.0
290
     0
  0
SCALE
  5
4F
102
{ACAD_REACTORS
330
47
102
}
330
47
100
AcDbScale
 70
     0
300
1:20
140
1.0
141
20.0
290
     0
  0
SCALE
  5
50
102
{ACAD_REACTORS
330
47
102
}
330
47
100
AcDbScale
 70
     0
300
1:30
140
1.0
141
30.0
290
     0
  0
SCALE
  5
51
102
{ACAD_REACTORS
330
47
102
}
330
47
100
AcDbScale
 70
     0
300
1:40
140
1.0
141
40.0
290
     0
  0
SCALE
  5
52
102
{ACAD_REACTORS
330
47
102
}
330
47
100
AcDbScale
 70
     0
300
1:50
140
1.0
141
50.0
290
     0
  0
SCALE
  5
53
102
{ACAD_REACTORS
330
47
102
}
330
47
100
AcDbScale
 70
     0
300
1:100
140
1.0
141
100.0
290
     0
  0
SCALE
  5
54
102
{ACAD_REACTORS
330
47
102
}
330
47
100
AcDbScale
 70
     0
300
2:1
140
2.0
141
1.0
290
     0
  0
SCALE
  5
55
102
{ACAD_REACTORS
330
47
102
}
330
47
100
AcDbScale
 70
     0
300
4:1
140
4.0
141
1.0
290
     0
  0
SCALE
  5
56
102
{ACAD_REACTORS
330
47
102
}
330
47
100
AcDbScale
 70
     0
300
8:1
140
8.0
141
1.0
290
     0
  0
SCALE
  5
57
102
{ACAD_REACTORS
330
47
102
}
330
47
100
AcDbScale
 70
     0
300
10:1
140
10.0
141
1.0
290
     0
  0
SCALE
  5
58
102
{ACAD_REACTORS
330
47
102
}
330
47
100
AcDbScale
 70
     0
300
100:1
140
100.0
141
1.0
290
     0
  0
ENDSEC
  0
EOF
